<svg id="Layer_1" data-name="Layer 1" xmlns="http://www.w3.org/2000/svg" xmlns:xlink="http://www.w3.org/1999/xlink" viewBox="0 0 737.38 564.2"><defs><style>.cls-1{fill:#f0e4e4;}.cls-2,.cls-5{fill:none;stroke-miterlimit:10;}.cls-2{stroke:#535461;stroke-width:5.61px;}.cls-14,.cls-3{fill:#303f9f;}.cls-4{opacity:0.25;}.cls-11,.cls-12,.cls-14,.cls-21,.cls-4{isolation:isolate;}.cls-5{stroke:#333;stroke-width:8.42px;}.cls-12,.cls-6{opacity:0.5;}.cls-7{fill:url(#linear-gradient);}.cls-8{fill:#535461;}.cls-12,.cls-9{fill:#fff;}.cls-10{fill:#e6e6e6;}.cls-11{opacity:0.2;}.cls-13,.cls-14{opacity:0.6;}.cls-15{fill:url(#linear-gradient-2);}.cls-16{fill:url(#linear-gradient-3);}.cls-17{fill:#fda57d;}.cls-18{fill:#edeef9;}.cls-19{fill:#7a7478;}.cls-20{fill:#333;}.cls-21,.cls-24{opacity:0.1;}.cls-22{fill:#4d8af0;}.cls-23{fill:#72351c;}</style><linearGradient id="linear-gradient" x1="2.49" y1="1078.25" x2="4.7" y2="1081.15" gradientTransform="matrix(103.37, 0, 0, -185.95, 542.09, 201244.79)" gradientUnits="userSpaceOnUse"><stop offset="0" stop-color="gray" stop-opacity="0.25"/><stop offset="0.54" stop-color="gray" stop-opacity="0.12"/><stop offset="1" stop-color="gray" stop-opacity="0.1"/></linearGradient><linearGradient id="linear-gradient-2" x1="12.53" y1="1073.73" x2="12.53" y2="1076.53" gradientTransform="matrix(13.87, 0, 0, -20.73, 642.88, 22697.69)" xlink:href="#linear-gradient"/><linearGradient id="linear-gradient-3" x1="3.48" y1="1077.74" x2="3.48" y2="1080.55" gradientTransform="matrix(53.14, 0, 0, -155.21, 557.41, 168063.91)" xlink:href="#linear-gradient"/></defs><title>app-development-2</title><g id="Group_47" data-name="Group 47"><path id="Path_234" data-name="Path 234" class="cls-1" d="M710.89,677.25c9.89.65,20.33,4.08,29.33-.07,2.32-1.07,4.42-2.61,6.83-3.47,5.53-2,11.61-.06,17.18,1.79a762,762,0,0,0,134,31.26c9.38,1.31,19.17,2.41,28.11-.64,6.53-2.23,12.19-6.52,18.66-8.93,10.59-3.93,22.28-2.47,33.54-1.85a214.8,214.8,0,0,0,86.72-13.21l1.46-.56a43.87,43.87,0,0,1,41.82,5.61,101.39,101.39,0,0,0,14.91,9.1A36.33,36.33,0,0,1,1140,744.16l-.19.42c-4.59,10-8.42,21.22-17.42,27.58-8.49,6-19.63,6.24-30,6.27l-63.77.15a83.83,83.83,0,0,1-19.74-1.56,80.23,80.23,0,0,1-16.46-6.74l-28.54-14.15c-11.49-5.71-24.08-11.59-36.66-9-12.84,2.68-22.1,13.47-33.29,20.29a58.86,58.86,0,0,1-58.2,1c-8.49-4.77-15.87-11.72-25.14-14.72-15.3-4.95-31.56,1.91-47.3,5.19-30.64,6.39-66.73-2.35-90.21-23.49C642.77,708.26,678.27,675.12,710.89,677.25Z" transform="translate(-539.62 -222.41)"/><path id="Path_235" data-name="Path 235" class="cls-2" d="M595,722.73S571.65,643.42,599.41,585a125.3,125.3,0,0,0,10.13-78.63,210.82,210.82,0,0,0-11.13-36.93" transform="translate(-539.62 -222.41)"/><path id="Path_236" data-name="Path 236" class="cls-3" d="M615.68,432.53c0,9.72-17.61,37.92-17.61,37.92s-17.6-28.2-17.6-37.92a17.61,17.61,0,0,1,35.21,0Z" transform="translate(-539.62 -222.41)"/><path id="Path_237" data-name="Path 237" class="cls-3" d="M644.78,486.41c-5.28,8.16-35.39,22.27-35.39,22.27s.54-33.25,5.83-41.41a17.61,17.61,0,0,1,29.56,19.14Z" transform="translate(-539.62 -222.41)"/><path id="Path_238" data-name="Path 238" class="cls-3" d="M643.51,578.45c-8.68,4.38-41.75,1.36-41.75,1.36S619,551.39,627.69,547a17.61,17.61,0,1,1,16.61,31c-.25.14-.5.26-.75.38Z" transform="translate(-539.62 -222.41)"/><path id="Path_239" data-name="Path 239" class="cls-3" d="M626.87,647.89c-7.82,5.78-41,8.4-41,8.4s12.2-30.93,20-36.71a17.61,17.61,0,0,1,21.24,28.09l-.3.22Z" transform="translate(-539.62 -222.41)"/><path id="Path_240" data-name="Path 240" class="cls-3" d="M572.42,510.55c7,6.78,39.47,13.8,39.47,13.8s-7.95-32.28-14.93-39.06a17.61,17.61,0,0,0-24.76,25Z" transform="translate(-539.62 -222.41)"/><path id="Path_241" data-name="Path 241" class="cls-3" d="M554,592c8.68,4.38,41.75,1.36,41.75,1.36S578.48,565,569.8,560.59A17.61,17.61,0,0,0,554,592Z" transform="translate(-539.62 -222.41)"/><path id="Path_242" data-name="Path 242" class="cls-3" d="M546.92,673.62c7.82,5.79,41,8.4,41,8.4s-12.2-30.93-20-36.71a17.61,17.61,0,0,0-21.24,28.09l.3.22Z" transform="translate(-539.62 -222.41)"/><path id="Path_243" data-name="Path 243" class="cls-4" d="M615.68,432.53c0,9.72-17.61,37.92-17.61,37.92s-17.6-28.2-17.6-37.92a17.61,17.61,0,0,1,35.21,0Z" transform="translate(-539.62 -222.41)"/><path id="Path_244" data-name="Path 244" class="cls-4" d="M644.78,486.41c-5.28,8.16-35.39,22.27-35.39,22.27s.54-33.25,5.83-41.41a17.61,17.61,0,0,1,29.56,19.14Z" transform="translate(-539.62 -222.41)"/><path id="Path_245" data-name="Path 245" class="cls-4" d="M643.51,578.45c-8.68,4.38-41.75,1.36-41.75,1.36S619,551.39,627.69,547a17.61,17.61,0,1,1,16.61,31c-.25.14-.5.26-.75.38Z" transform="translate(-539.62 -222.41)"/><path id="Path_246" data-name="Path 246" class="cls-4" d="M626.87,647.89c-7.82,5.78-41,8.4-41,8.4s12.2-30.93,20-36.71a17.61,17.61,0,0,1,21.24,28.09l-.3.22Z" transform="translate(-539.62 -222.41)"/><path id="Path_247" data-name="Path 247" class="cls-4" d="M572.42,510.55c7,6.78,39.47,13.8,39.47,13.8s-7.95-32.28-14.93-39.06a17.61,17.61,0,0,0-24.76,25Z" transform="translate(-539.62 -222.41)"/><path id="Path_248" data-name="Path 248" class="cls-4" d="M554,592c8.68,4.38,41.75,1.36,41.75,1.36S578.48,565,569.8,560.59A17.61,17.61,0,0,0,554,592Z" transform="translate(-539.62 -222.41)"/><path id="Path_249" data-name="Path 249" class="cls-4" d="M546.92,673.62c7.82,5.79,41,8.4,41,8.4s-12.2-30.93-20-36.71a17.61,17.61,0,0,0-21.24,28.09l.3.22Z" transform="translate(-539.62 -222.41)"/><path id="Path_250" data-name="Path 250" class="cls-3" d="M1021.14,502.84c-3-23.29,6.33-47.25.8-70-4.25-17.61-16.86-32.31-21-50-6.09-26.14,7.83-53,25.6-73.06,12.22-13.84,27.56-26.39,45.84-28.91a61.81,61.81,0,0,1,33.31,5.47,84.56,84.56,0,0,1,45.45,49.92c2.4,7.15,3.79,14.62,6.76,21.55,5.1,11.94,14.45,21.57,20.27,33.19a63,63,0,0,1,2.14,50.88c-6.74,16.81-20.88,30.87-23,48.87-1.51,13,3.35,27.17-3,38.6-4.77,8.62-14.59,13-23.89,16.23-21.63,7.55-51.86,19.75-73.53,8.14A68.92,68.92,0,0,1,1021.14,502.84Z" transform="translate(-539.62 -222.41)"/><path id="Path_251" data-name="Path 251" class="cls-5" d="M1081.84,519.39s31.84-12.84,35.85-20.07,9.64-49.78,9.64-49.78" transform="translate(-539.62 -222.41)"/><line id="Line_6" data-name="Line 6" class="cls-5" x1="541.91" y1="493.71" x2="541.91" y2="216.7"/><g id="Group_41" data-name="Group 41" class="cls-6"><path id="Path_252" data-name="Path 252" class="cls-7" d="M1043.53,222.41l-267,.65a11,11,0,0,0-10.94,11h0l1.21,499.29a11,11,0,0,0,11,10.95h0l267-.65a11,11,0,0,0,11-11h0l-1.2-499.29a11,11,0,0,0-11-11Z" transform="translate(-539.62 -222.41)"/></g><rect id="Rectangle_60" data-name="Rectangle 60" class="cls-8" x="770.13" y="229.55" width="281.11" height="507.4" rx="38.28" transform="translate(-540.8 -220.19) rotate(-0.14)"/><path id="Path_253" data-name="Path 253" class="cls-9" d="M1044.74,713.22a10.67,10.67,0,0,1-10.63,10.7h0l-245.69.6a10.67,10.67,0,0,1-10.7-10.63v0l-.17-72.06-.94-388.54a10.67,10.67,0,0,1,10.63-10.7h0l51.38-.12a22.79,22.79,0,0,0,22.48,19.32l97.09-.23a22.8,22.8,0,0,0,22.47-19.44l52.21-.13a10.67,10.67,0,0,1,10.7,10.63v0l1,389.19Z" transform="translate(-539.62 -222.41)"/><path id="Path_254" data-name="Path 254" class="cls-10" d="M1044.74,713.22a10.67,10.67,0,0,1-10.63,10.7h0l-245.7.6a10.67,10.67,0,0,1-10.7-10.63v0l-.17-72.06h267Z" transform="translate(-539.62 -222.41)"/><path id="Rectangle_61" data-name="Rectangle 61" class="cls-9" d="M878.18,248.82l58.72-.89a2,2,0,0,1,2,1.93h0a2,2,0,0,1-1.93,2l-58.72.88a2,2,0,0,1-2-1.93h0A2,2,0,0,1,878.18,248.82Z" transform="translate(-539.62 -222.41)"/><circle id="Ellipse_50" data-name="Ellipse 50" class="cls-9" cx="412.56" cy="26.85" r="2.35"/><path id="Path_255" data-name="Path 255" class="cls-3" d="M1113.48,502.84c-3-23.29,6.33-47.25.8-70-4.26-17.61-16.86-32.31-21-50-6.08-26.14,7.84-53,25.61-73.06,12.22-13.84,27.55-26.39,45.84-28.91a61.83,61.83,0,0,1,33.31,5.47,84.52,84.52,0,0,1,45.44,49.92c2.41,7.15,3.8,14.62,6.77,21.55,5.1,11.94,14.45,21.57,20.27,33.19a63,63,0,0,1,2.11,50.91c-6.73,16.81-20.87,30.87-23,48.87-1.52,13,3.35,27.17-3,38.6-4.78,8.62-14.6,13-23.89,16.23-21.61,7.52-51.84,19.72-73.53,8.11A68.92,68.92,0,0,1,1113.48,502.84Z" transform="translate(-539.62 -222.41)"/><path id="Path_256" data-name="Path 256" class="cls-11" d="M1113.48,502.84c-3-23.29,6.33-47.25.8-70-4.26-17.61-16.86-32.31-21-50-6.08-26.14,7.84-53,25.61-73.06,12.22-13.84,27.55-26.39,45.84-28.91a61.83,61.83,0,0,1,33.31,5.47,84.52,84.52,0,0,1,45.44,49.92c2.41,7.15,3.8,14.62,6.77,21.55,5.1,11.94,14.45,21.57,20.27,33.19a63,63,0,0,1,2.11,50.91c-6.73,16.81-20.87,30.87-23,48.87-1.52,13,3.35,27.17-3,38.6-4.78,8.62-14.6,13-23.89,16.23-21.61,7.52-51.84,19.72-73.53,8.11A68.92,68.92,0,0,1,1113.48,502.84Z" transform="translate(-539.62 -222.41)"/><path id="Path_257" data-name="Path 257" class="cls-5" d="M1174.17,519.39S1206,506.55,1210,499.32s9.63-49.78,9.63-49.78" transform="translate(-539.62 -222.41)"/><line id="Line_7" data-name="Line 7" class="cls-5" x1="634.24" y1="493.71" x2="634.24" y2="216.7"/><path id="Path_258" data-name="Path 258" class="cls-2" d="M653.36,755s-10.22-34.68,1.91-60.22a54.78,54.78,0,0,0,4.43-34.35,92.79,92.79,0,0,0-4.87-16.13" transform="translate(-539.62 -222.41)"/><path id="Path_259" data-name="Path 259" class="cls-3" d="M662.38,628.21c0,4.25-7.7,16.56-7.7,16.56S647,632.45,647,628.21a7.7,7.7,0,1,1,15.39,0Z" transform="translate(-539.62 -222.41)"/><path id="Path_260" data-name="Path 260" class="cls-3" d="M675.11,651.75c-2.32,3.57-15.47,9.73-15.47,9.73s.24-14.52,2.55-18.09a7.69,7.69,0,1,1,13.16,8c-.08.13-.16.26-.25.39Z" transform="translate(-539.62 -222.41)"/><path id="Path_261" data-name="Path 261" class="cls-3" d="M674.54,692c-3.8,1.91-18.26.59-18.26.59s7.54-12.42,11.33-14.33A7.69,7.69,0,1,1,674.54,692Z" transform="translate(-539.62 -222.41)"/><path id="Path_262" data-name="Path 262" class="cls-3" d="M667.27,722.32c-3.42,2.52-17.9,3.67-17.9,3.67s5.34-13.52,8.75-16.06a7.7,7.7,0,1,1,9.23,12.32l-.07,0Z" transform="translate(-539.62 -222.41)"/><path id="Path_263" data-name="Path 263" class="cls-3" d="M643.45,662.31c3,3,17.24,6,17.24,6s-3.48-14.11-6.53-17.07a7.69,7.69,0,1,0-10.71,11Z" transform="translate(-539.62 -222.41)"/><path id="Path_264" data-name="Path 264" class="cls-3" d="M635.42,697.89c3.8,1.91,18.26.6,18.26.6s-7.53-12.43-11.33-14.34a7.69,7.69,0,1,0-6.93,13.74Z" transform="translate(-539.62 -222.41)"/><path id="Path_265" data-name="Path 265" class="cls-3" d="M632.33,733.57c3.43,2.52,17.9,3.66,17.9,3.66s-5.33-13.51-8.75-16.05a7.69,7.69,0,0,0-9.15,12.37Z" transform="translate(-539.62 -222.41)"/><path id="Path_266" data-name="Path 266" class="cls-4" d="M662.38,628.21c0,4.25-7.7,16.56-7.7,16.56S647,632.45,647,628.21a7.7,7.7,0,1,1,15.39,0Z" transform="translate(-539.62 -222.41)"/><path id="Path_267" data-name="Path 267" class="cls-4" d="M675.11,651.75c-2.32,3.57-15.47,9.73-15.47,9.73s.24-14.52,2.55-18.09a7.69,7.69,0,1,1,13.16,8c-.08.13-.16.26-.25.39Z" transform="translate(-539.62 -222.41)"/><path id="Path_268" data-name="Path 268" class="cls-4" d="M674.54,692c-3.8,1.91-18.26.59-18.26.59s7.54-12.42,11.33-14.33A7.69,7.69,0,1,1,674.54,692Z" transform="translate(-539.62 -222.41)"/><path id="Path_269" data-name="Path 269" class="cls-4" d="M667.27,722.32c-3.42,2.52-17.9,3.67-17.9,3.67s5.34-13.52,8.75-16.06a7.7,7.7,0,1,1,9.23,12.32l-.07,0Z" transform="translate(-539.62 -222.41)"/><path id="Path_270" data-name="Path 270" class="cls-4" d="M643.45,662.31c3,3,17.24,6,17.24,6s-3.48-14.11-6.53-17.07a7.69,7.69,0,1,0-10.71,11Z" transform="translate(-539.62 -222.41)"/><path id="Path_271" data-name="Path 271" class="cls-4" d="M635.42,697.89c3.8,1.91,18.26.6,18.26.6s-7.53-12.43-11.33-14.34a7.69,7.69,0,1,0-6.93,13.74Z" transform="translate(-539.62 -222.41)"/><path id="Path_272" data-name="Path 272" class="cls-4" d="M632.33,733.57c3.43,2.52,17.9,3.66,17.9,3.66s-5.33-13.51-8.75-16.05a7.69,7.69,0,0,0-9.15,12.37Z" transform="translate(-539.62 -222.41)"/><path id="Path_273" data-name="Path 273" class="cls-2" d="M1219.18,735.4s-12.66-43,2.41-74.58a67.88,67.88,0,0,0,5.48-42.55,115,115,0,0,0-6-20" transform="translate(-539.62 -222.41)"/><path id="Path_274" data-name="Path 274" class="cls-3" d="M1230.37,578.28c0,5.27-9.54,20.53-9.54,20.53s-9.54-15.26-9.54-20.53a9.54,9.54,0,0,1,19.07,0Z" transform="translate(-539.62 -222.41)"/><path id="Path_275" data-name="Path 275" class="cls-3" d="M1246.12,607.45c-2.86,4.41-19.16,12-19.16,12s.3-18,3.16-22.42a9.54,9.54,0,0,1,16,10.37Z" transform="translate(-539.62 -222.41)"/><path id="Path_276" data-name="Path 276" class="cls-3" d="M1245.44,657.28c-4.7,2.41-22.63.73-22.63.73s9.34-15.38,14-17.76a9.54,9.54,0,1,1,9.4,16.61c-.27.15-.54.29-.81.41Z" transform="translate(-539.62 -222.41)"/><path id="Path_277" data-name="Path 277" class="cls-3" d="M1236.42,694.88c-4.23,3.13-22.17,4.54-22.17,4.54s6.6-16.74,10.84-19.87a9.54,9.54,0,0,1,12.06,14.79,7.54,7.54,0,0,1-.73.53Z" transform="translate(-539.62 -222.41)"/><path id="Path_278" data-name="Path 278" class="cls-3" d="M1206.94,620.53c3.78,3.66,21.38,7.46,21.38,7.46s-4.31-17.48-8.09-21.14a9.54,9.54,0,0,0-13.29,13.65Z" transform="translate(-539.62 -222.41)"/><path id="Path_279" data-name="Path 279" class="cls-3" d="M1197,664.62c4.7,2.41,22.63.73,22.63.73s-9.34-15.38-14-17.76a9.54,9.54,0,0,0-8.58,17Z" transform="translate(-539.62 -222.41)"/><path id="Path_280" data-name="Path 280" class="cls-3" d="M1193.14,708.8c4.23,3.14,22.17,4.55,22.17,4.55s-6.6-16.74-10.84-19.88a9.54,9.54,0,0,0-12.06,14.79c.24.19.48.37.73.54Z" transform="translate(-539.62 -222.41)"/><path id="Path_281" data-name="Path 281" class="cls-12" d="M1230.37,578.28c0,5.27-9.54,20.53-9.54,20.53s-9.54-15.26-9.54-20.53a9.54,9.54,0,0,1,19.07,0Z" transform="translate(-539.62 -222.41)"/><path id="Path_282" data-name="Path 282" class="cls-12" d="M1246.12,607.45c-2.86,4.41-19.16,12-19.16,12s.3-18,3.16-22.42a9.54,9.54,0,0,1,16,10.37Z" transform="translate(-539.62 -222.41)"/><path id="Path_283" data-name="Path 283" class="cls-12" d="M1245.44,657.28c-4.7,2.41-22.63.73-22.63.73s9.34-15.38,14-17.76a9.54,9.54,0,1,1,9.4,16.61c-.27.15-.54.29-.81.41Z" transform="translate(-539.62 -222.41)"/><path id="Path_284" data-name="Path 284" class="cls-12" d="M1236.42,694.88c-4.23,3.13-22.17,4.54-22.17,4.54s6.6-16.74,10.84-19.87a9.54,9.54,0,0,1,12.06,14.79,7.54,7.54,0,0,1-.73.53Z" transform="translate(-539.62 -222.41)"/><path id="Path_285" data-name="Path 285" class="cls-12" d="M1206.94,620.53c3.78,3.66,21.38,7.46,21.38,7.46s-4.31-17.48-8.09-21.14a9.54,9.54,0,0,0-13.29,13.65Z" transform="translate(-539.62 -222.41)"/><path id="Path_286" data-name="Path 286" class="cls-12" d="M1197,664.62c4.7,2.41,22.63.73,22.63.73s-9.34-15.38-14-17.76a9.54,9.54,0,0,0-8.58,17Z" transform="translate(-539.62 -222.41)"/><path id="Path_287" data-name="Path 287" class="cls-12" d="M1193.14,708.8c4.23,3.14,22.17,4.55,22.17,4.55s-6.6-16.74-10.84-19.88a9.54,9.54,0,0,0-12.06,14.79c.24.19.48.37.73.54Z" transform="translate(-539.62 -222.41)"/><g id="Group_42" data-name="Group 42" class="cls-13"><path id="Rectangle_62" data-name="Rectangle 62" class="cls-3" d="M816.06,304.2h0a25.69,25.69,0,0,1,25.69,25.69h0a25.69,25.69,0,0,1-25.69,25.69h0a25.7,25.7,0,0,1-25.7-25.69h0A25.7,25.7,0,0,1,816.06,304.2Z" transform="translate(-539.62 -222.41)"/><path id="Rectangle_63" data-name="Rectangle 63" class="cls-3" d="M879.49,304.2h0a25.69,25.69,0,0,1,25.69,25.69h0a25.69,25.69,0,0,1-25.69,25.69h0a25.7,25.7,0,0,1-25.7-25.69h0A25.7,25.7,0,0,1,879.49,304.2Z" transform="translate(-539.62 -222.41)"/><path id="Rectangle_64" data-name="Rectangle 64" class="cls-3" d="M942.92,304.2h0a25.69,25.69,0,0,1,25.69,25.69h0a25.69,25.69,0,0,1-25.69,25.69h0a25.7,25.7,0,0,1-25.7-25.69h0A25.7,25.7,0,0,1,942.92,304.2Z" transform="translate(-539.62 -222.41)"/><path id="Rectangle_65" data-name="Rectangle 65" class="cls-3" d="M1006.35,304.2h0A25.69,25.69,0,0,1,1032,329.89h0a25.69,25.69,0,0,1-25.69,25.69h0a25.7,25.7,0,0,1-25.7-25.69h0A25.7,25.7,0,0,1,1006.35,304.2Z" transform="translate(-539.62 -222.41)"/></g><path id="Rectangle_66" data-name="Rectangle 66" class="cls-3" d="M815.79,381.28h0A25.69,25.69,0,0,1,841.48,407h0a25.69,25.69,0,0,1-25.69,25.69h0A25.69,25.69,0,0,1,790.1,407h0A25.69,25.69,0,0,1,815.79,381.28Z" transform="translate(-539.62 -222.41)"/><path id="Rectangle_67" data-name="Rectangle 67" class="cls-14" d="M879.22,381.28h0A25.69,25.69,0,0,1,904.91,407h0a25.69,25.69,0,0,1-25.69,25.69h0A25.69,25.69,0,0,1,853.53,407h0A25.69,25.69,0,0,1,879.22,381.28Z" transform="translate(-539.62 -222.41)"/><path id="Rectangle_68" data-name="Rectangle 68" class="cls-14" d="M942.65,381.28h0A25.69,25.69,0,0,1,968.34,407h0a25.69,25.69,0,0,1-25.69,25.69h0A25.69,25.69,0,0,1,917,407h0A25.69,25.69,0,0,1,942.65,381.28Z" transform="translate(-539.62 -222.41)"/><path id="Rectangle_69" data-name="Rectangle 69" class="cls-14" d="M1006.08,381.28h0A25.69,25.69,0,0,1,1031.77,407h0a25.69,25.69,0,0,1-25.69,25.69h0A25.69,25.69,0,0,1,980.39,407h0A25.69,25.69,0,0,1,1006.08,381.28Z" transform="translate(-539.62 -222.41)"/><g id="Group_43" data-name="Group 43" class="cls-13"><path id="Rectangle_70" data-name="Rectangle 70" class="cls-3" d="M815.53,458.36h0a25.69,25.69,0,0,1,25.69,25.69h0a25.69,25.69,0,0,1-25.69,25.69h0a25.7,25.7,0,0,1-25.7-25.69h0A25.7,25.7,0,0,1,815.53,458.36Z" transform="translate(-539.62 -222.41)"/><path id="Rectangle_71" data-name="Rectangle 71" class="cls-3" d="M879,458.36h0a25.7,25.7,0,0,1,25.7,25.69h0A25.7,25.7,0,0,1,879,509.74h0a25.69,25.69,0,0,1-25.69-25.69h0A25.69,25.69,0,0,1,879,458.36Z" transform="translate(-539.62 -222.41)"/><path id="Rectangle_72" data-name="Rectangle 72" class="cls-3" d="M942.39,458.36h0a25.69,25.69,0,0,1,25.69,25.69h0a25.69,25.69,0,0,1-25.69,25.69h0a25.7,25.7,0,0,1-25.7-25.69h0A25.7,25.7,0,0,1,942.39,458.36Z" transform="translate(-539.62 -222.41)"/><path id="Rectangle_73" data-name="Rectangle 73" class="cls-3" d="M1005.82,458.36h0a25.69,25.69,0,0,1,25.69,25.69h0a25.69,25.69,0,0,1-25.69,25.69h0a25.7,25.7,0,0,1-25.7-25.69h0A25.7,25.7,0,0,1,1005.82,458.36Z" transform="translate(-539.62 -222.41)"/></g><g id="Group_44" data-name="Group 44" class="cls-13"><path id="Rectangle_74" data-name="Rectangle 74" class="cls-3" d="M815.27,535.43h0A25.7,25.7,0,0,1,841,561.13h0a25.69,25.69,0,0,1-25.69,25.69h0a25.69,25.69,0,0,1-25.69-25.69h0A25.7,25.7,0,0,1,815.27,535.43Z" transform="translate(-539.62 -222.41)"/><path id="Rectangle_75" data-name="Rectangle 75" class="cls-3" d="M878.7,535.43h0a25.7,25.7,0,0,1,25.69,25.7h0a25.69,25.69,0,0,1-25.69,25.69h0A25.7,25.7,0,0,1,853,561.13h0A25.7,25.7,0,0,1,878.7,535.43Z" transform="translate(-539.62 -222.41)"/><path id="Rectangle_76" data-name="Rectangle 76" class="cls-3" d="M942.13,535.43h0a25.7,25.7,0,0,1,25.69,25.7h0a25.69,25.69,0,0,1-25.69,25.69h0a25.69,25.69,0,0,1-25.69-25.69h0A25.7,25.7,0,0,1,942.13,535.43Z" transform="translate(-539.62 -222.41)"/><path id="Rectangle_77" data-name="Rectangle 77" class="cls-3" d="M1005.56,535.43h0a25.7,25.7,0,0,1,25.69,25.7h0a25.69,25.69,0,0,1-25.69,25.69h0a25.7,25.7,0,0,1-25.7-25.69h0A25.7,25.7,0,0,1,1005.56,535.43Z" transform="translate(-539.62 -222.41)"/></g><path id="Path_288" data-name="Path 288" class="cls-15" d="M816.87,439.37V444L797.3,431.64l2.06-2.57,1,.56,15.15-22.2V394.52l5.77.51V393C836.5,375.45,838,395,834.89,400.7a34.45,34.45,0,0,1-8.92,9.79c-3.21,2.69-8.83,23.09-10.18,28.2Z" transform="translate(-539.62 -222.41)"/><path id="Path_289" data-name="Path 289" class="cls-16" d="M668.46,479.83h0s14.94,29.23,10.3,58.46c-1.56,9.83-.91,15.84.65,19.5a36,36,0,0,1-3.21,11.41c-5.67,11.86-5.67,24.22,1.54,38.65l2.06,74.67s2.58,35,0,42.25,1,41.75,1,41.75h-.51v19.06l38.6,1s9.05-4.3,10.66-7.51l19.4,6s21.35-3.68,8.84-8.77c-9.32-3.79-11.64-9.21-12.22-11.72l30.51-87.72s-5.66-74.67-26.27-100.48l-2.09-15.19H748l4.37-88.69.37.05h-.11a98.36,98.36,0,0,0,34-.52,53.11,53.11,0,0,0,9.85-2.75l.59-.24h.12a29.84,29.84,0,0,0,6.7-3.82l12.84-19.68L797.2,432.06l-6.7,9.54a251.1,251.1,0,0,1-32.5-9.1,49.12,49.12,0,0,0-16.86-3.62l-12.59-.43-6.27-3.77,2-5.07a6.1,6.1,0,0,0,.58-.28l.17-1.08a30.05,30.05,0,0,0,21.93-36.4h.41c-.18-10.43-3.37-11.45-3.37-11.45,0-10.62-9.26-18.38-19.84-19.27a52.12,52.12,0,0,0-16.27,1.43A19,19,0,0,0,693.4,369c-13.8,3.8-9.17,11-9.39,13.8-1.06,13.48,3.21,21.46,8,26.1a24.81,24.81,0,0,0,7,5.1l-3,6H695l-2.47,7.25h-.12L689.74,429A50.33,50.33,0,0,0,668.46,479.83Zm41.21,286.69V743.33l9.79-68.52v-35L737,676.33l-18.88,79.3-1-.28L712.77,771a10.28,10.28,0,0,1-3.1-4.45Z" transform="translate(-539.62 -222.41)"/><path id="Path_290" data-name="Path 290" class="cls-17" d="M812.94,401.36v12.37L798.2,435.34l14.74,9.59s6.55-25.24,10.09-28.22a33.12,33.12,0,0,0,8.56-9.4c3-5.44,1.51-24.25-13.11-7.42v2Z" transform="translate(-539.62 -222.41)"/><path id="Path_291" data-name="Path 291" class="cls-17" d="M695.58,430.88l5.84-11.68a2.16,2.16,0,0,1,1.82-1.19l22.17-1.12a2.15,2.15,0,0,1,2.27,2,2.06,2.06,0,0,1-.14.89l-5.72,14.79a2.16,2.16,0,0,1-2.21,1.37l-22.28-2a2.16,2.16,0,0,1-2-2.35,2.06,2.06,0,0,1,.21-.76Z" transform="translate(-539.62 -222.41)"/><path id="Path_292" data-name="Path 292" class="cls-18" d="M697.22,425.87l-3.77,11,38.67-1.39-14.85-8.91Z" transform="translate(-539.62 -222.41)"/><path id="Path_293" data-name="Path 293" class="cls-18" d="M795.49,437l2-2.48,16.84,9.9v4.46Z" transform="translate(-539.62 -222.41)"/><path id="Path_294" data-name="Path 294" class="cls-19" d="M681.76,546.52a36.73,36.73,0,0,1-2.61,22.66c-5.44,11.39-5.44,23.29,1.49,37.12l2,71.79s2.47,33.67,0,40.59,1,40.11,1,40.11h27.73V736.5l9.4-65.83V637l16.86,35.15-19.27,81.19,25.24,10.38,31.69-91.09s-5.5-71.78-25.3-96.53l-3.72-27Z" transform="translate(-539.62 -222.41)"/><path id="Path_295" data-name="Path 295" class="cls-20" d="M683.11,777.1V758.79h28.22s2,7.42,14.85,8.91-5.94,10.38-5.94,10.38Z" transform="translate(-539.62 -222.41)"/><path id="Path_296" data-name="Path 296" class="cls-20" d="M713.59,765.7,718.5,748l27.2,7.58s-.09,7.69,11.91,12.57-8.51,8.42-8.51,8.42Z" transform="translate(-539.62 -222.41)"/><path id="Path_297" data-name="Path 297" class="cls-21" d="M746.22,550.62,681.75,548a35.85,35.85,0,0,1,.49,11.69,7.74,7.74,0,0,0,9.26,5L747.92,563Z" transform="translate(-539.62 -222.41)"/><path id="Path_298" data-name="Path 298" class="cls-22" d="M694.74,432.8l-2.56,1.74a48.37,48.37,0,0,0-20.45,48.77h0s14.35,28.1,9.9,56.21,9.89,23.76,9.89,23.76l56.7-1.74,4.21-85.23s34.15,4.86,49.51-7l12.37-18.91-18.81-13-6.42,9.19a241.68,241.68,0,0,1-31.24-8.75,47.38,47.38,0,0,0-16.23-3.48Z" transform="translate(-539.62 -222.41)"/><path id="Path_299" data-name="Path 299" class="cls-21" d="M695.23,569.93s-3.46,17.32,16.34,46" transform="translate(-539.62 -222.41)"/><path id="Path_300" data-name="Path 300" class="cls-21" d="M752.64,476.36s23.76-7.91,34.16-7.91,8.66,4.49,8.66,4.49S778.91,480.32,752.64,476.36Z" transform="translate(-539.62 -222.41)"/><path id="Path_301" data-name="Path 301" class="cls-21" d="M725.72,417.89,716.26,419c-.3,0-.56.41-.73,1,2.08,3.75,4.68,6,7.51,6a5.9,5.9,0,0,0,2.87-.8l.72-4.38C726.87,419.36,726.39,417.8,725.72,417.89Z" transform="translate(-539.62 -222.41)"/><circle id="Ellipse_51" data-name="Ellipse 51" class="cls-17" cx="179.5" cy="173.71" r="28.87"/><path id="Path_302" data-name="Path 302" class="cls-21" d="M743.68,379.77h0l-1.47,1.34a5,5,0,0,0,1.45,8.29h0s-12.94,12.94-14.73,15.34.29,8.72.29,8.72,5.72,10.52-24.36,8.11c0,0-19.85-4.21-17.74-31,.21-2.69-4.21-9.64,9-13.24h0a18.21,18.21,0,0,1,14-15.81,50.36,50.36,0,0,1,15.66-1.38A19.64,19.64,0,0,1,743.68,379.77Z" transform="translate(-539.62 -222.41)"/><path id="Path_303" data-name="Path 303" class="cls-23" d="M744.31,378.2h0s3.07.95,3.21,11l-4.36-.3s-10.08,27-9,23.46c3.91-12.94-3.91-10.52-5.71-8.12s.29,8.72.29,8.72,5.72,10.53-24.36,8.12c0,0-19.84-4.21-17.74-31,.21-2.68-4.21-9.63,9-13.23h0a18.19,18.19,0,0,1,13.92-15.83,50.35,50.35,0,0,1,15.66-1.37C735.4,360.54,744.31,368,744.31,378.2Z" transform="translate(-539.62 -222.41)"/><g id="Group_45" data-name="Group 45" class="cls-13"><path id="Rectangle_78" data-name="Rectangle 78" class="cls-3" d="M816.07,657.87h0a25.69,25.69,0,0,1,25.69,25.69h0a25.7,25.7,0,0,1-25.69,25.7h0a25.7,25.7,0,0,1-25.69-25.7h0A25.69,25.69,0,0,1,816.07,657.87Z" transform="translate(-539.62 -222.41)"/><path id="Rectangle_79" data-name="Rectangle 79" class="cls-3" d="M879.5,657.87h0a25.69,25.69,0,0,1,25.69,25.69h0a25.7,25.7,0,0,1-25.69,25.7h0a25.7,25.7,0,0,1-25.69-25.7h0A25.69,25.69,0,0,1,879.5,657.87Z" transform="translate(-539.62 -222.41)"/><path id="Rectangle_80" data-name="Rectangle 80" class="cls-3" d="M942.93,657.87h0a25.69,25.69,0,0,1,25.69,25.69h0a25.7,25.7,0,0,1-25.69,25.7h0a25.7,25.7,0,0,1-25.69-25.7h0A25.69,25.69,0,0,1,942.93,657.87Z" transform="translate(-539.62 -222.41)"/><path id="Rectangle_81" data-name="Rectangle 81" class="cls-3" d="M1006.36,657.87h0a25.69,25.69,0,0,1,25.69,25.69h0a25.7,25.7,0,0,1-25.69,25.7h0a25.7,25.7,0,0,1-25.69-25.7h0A25.69,25.69,0,0,1,1006.36,657.87Z" transform="translate(-539.62 -222.41)"/></g><g id="Group_46" data-name="Group 46" class="cls-24"><path id="Rectangle_82" data-name="Rectangle 82" d="M816.07,657.87h0a25.69,25.69,0,0,1,25.69,25.69h0a25.7,25.7,0,0,1-25.69,25.7h0a25.7,25.7,0,0,1-25.69-25.7h0A25.69,25.69,0,0,1,816.07,657.87Z" transform="translate(-539.62 -222.41)"/><path id="Rectangle_83" data-name="Rectangle 83" d="M879.5,657.87h0a25.69,25.69,0,0,1,25.69,25.69h0a25.7,25.7,0,0,1-25.69,25.7h0a25.7,25.7,0,0,1-25.69-25.7h0A25.69,25.69,0,0,1,879.5,657.87Z" transform="translate(-539.62 -222.41)"/><path id="Rectangle_84" data-name="Rectangle 84" d="M942.93,657.87h0a25.69,25.69,0,0,1,25.69,25.69h0a25.7,25.7,0,0,1-25.69,25.7h0a25.7,25.7,0,0,1-25.69-25.7h0A25.69,25.69,0,0,1,942.93,657.87Z" transform="translate(-539.62 -222.41)"/><path id="Rectangle_85" data-name="Rectangle 85" d="M1006.36,657.87h0a25.69,25.69,0,0,1,25.69,25.69h0a25.7,25.7,0,0,1-25.69,25.7h0a25.7,25.7,0,0,1-25.69-25.7h0A25.69,25.69,0,0,1,1006.36,657.87Z" transform="translate(-539.62 -222.41)"/></g></g></svg>