<svg id="Layer_1" data-name="Layer 1" xmlns="http://www.w3.org/2000/svg" viewBox="0 0 879.5 581.35"><defs><style>.cls-1{fill:#3f3d56;}.cls-2{fill:#e6e8ec;}.cls-3{fill:#303f9f;}.cls-4,.cls-5{fill:#fff;}.cls-4{opacity:0.3;isolation:isolate;}.cls-6{fill:#ffb8b8;}.cls-7{fill:#2f2e41;}.cls-8{fill:#f2f2f2;}</style></defs><title>Untitled-2</title><path class="cls-1" d="M1163,829.35q-36.48-5.72-70.14-9.71l8.64-17.29c-3-1-16,9-16,9l11-50c-15,2-22,53-22,53l-17-17,8.37,19.25c-68.68-7.22-127.95-9.47-177.77-9l7.4-14.8c-3-1-16,9-16,9l11-50c-15,2-22,53-22,53l-17-17,8.86,20.39a998.2,998.2,0,0,0-102,8.21c7.38-23,33.16-45.1,33.16-45.1-19.82,6.17-30.13,16.21-35.47,25.53a401.59,401.59,0,0,1,21.47-139s-40,90-34,150l.76,10.66c-34.8,5.43-52.26,10.84-52.26,10.84Z" transform="translate(-520 -248)"/><path class="cls-1" d="M1254.67,705.49a12,12,0,1,1,12-12A12,12,0,0,1,1254.67,705.49Zm0-22a10,10,0,1,0,10,10A10,10,0,0,0,1254.67,683.49Z" transform="translate(-520 -248)"/><path class="cls-1" d="M1350.5,827.78h-19.74V808h19.74Zm-18.22-1.52H1349V809.55h-16.7Z" transform="translate(-520 -248)"/><path class="cls-1" d="M682.14,828.86l-13.46-14.44L683.11,801l13.47,14.44Zm-11.31-14.37,11.39,12.22,12.21-11.39L683,803.1Z" transform="translate(-520 -248)"/><rect class="cls-1" x="21.67" y="578.66" width="857.83" height="2"/><path class="cls-1" d="M1073.47,381.76v65.68a2.29,2.29,0,0,1-2.29,2.29h-1.62V791.88a35.71,35.71,0,0,1-35.7,35.7H820.07a35.68,35.68,0,0,1-35.69-35.7h0V461.73H783.2a1.61,1.61,0,0,1-1.62-1.61V422.74a1.61,1.61,0,0,1,1.61-1.62h1.19V407h-1.2a1.68,1.68,0,0,1-1.68-1.7V368.47a1.69,1.69,0,0,1,1.68-1.69h1.2V347.56h-1.21a1.5,1.5,0,0,1-1.5-1.5h0V325.94a1.49,1.49,0,0,1,1.5-1.51h1.21V283.69A35.68,35.68,0,0,1,820.07,248h213.78a35.71,35.71,0,0,1,35.71,35.69v95.78h1.62A2.29,2.29,0,0,1,1073.47,381.76Z" transform="translate(-520 -248)"/><rect class="cls-2" x="379.98" y="18.31" width="39.82" height="8.09" rx="2.54"/><circle class="cls-2" cx="430.41" cy="22.35" r="4.59"/><path class="cls-3" d="M1052.46,290.75V794.84a22.65,22.65,0,0,1-22.65,22.64H825.16a22.54,22.54,0,0,1-10.46-2.55,21.17,21.17,0,0,1-2.2-1.3,22.66,22.66,0,0,1-10-18.79V290.75a22.65,22.65,0,0,1,22.65-22.65h30.63V272a18.65,18.65,0,0,0,18.65,18.65H978.52A18.65,18.65,0,0,0,997.17,272V268.1h32.64a22.64,22.64,0,0,1,22.65,22.64Z" transform="translate(-520 -248)"/><path class="cls-4" d="M1052.46,722.68v72.16a22.65,22.65,0,0,1-22.65,22.64H825.16a22.54,22.54,0,0,1-10.46-2.55,21.17,21.17,0,0,1-2.2-1.3,22.66,22.66,0,0,1-10-18.79V722.71A187,187,0,0,1,1052.46,722.68Z" transform="translate(-520 -248)"/><path class="cls-4" d="M1040.29,814.91a22.37,22.37,0,0,1-10.48,2.57H825.16a22.54,22.54,0,0,1-10.46-2.55,122.16,122.16,0,0,1,225.59,0Z" transform="translate(-520 -248)"/><path class="cls-4" d="M995.75,816.12a13.61,13.61,0,0,1-6.34,1.56H865.57a13.68,13.68,0,0,1-6.33-1.55,73.93,73.93,0,0,1,136.51,0Z" transform="translate(-520 -248)"/><path class="cls-5" d="M979.55,463.25c-20.53,0-43.06-3.91-60.65-17.1-24.49-18.36-54.66-17.38-75.65-13.33A164.91,164.91,0,0,0,803,446.24l-.92-1.78a167,167,0,0,1,40.76-13.59c21.41-4.14,52.2-5.14,77.29,13.68,47,35.25,131.16,3.59,132,3.27l.72,1.87a242.85,242.85,0,0,1-48.71,11.85A186.89,186.89,0,0,1,979.55,463.25Z" transform="translate(-520 -248)"/><path class="cls-4" d="M802.5,445.35s69-16.71,117,6.17,133-.17,133-.17" transform="translate(-520 -248)"/><path class="cls-4" d="M867.64,471.31a131.9,131.9,0,0,1-24.83-2.48,166.59,166.59,0,0,1-40.76-13.59l.92-1.78a164.91,164.91,0,0,0,40.28,13.42c21,4.06,51.16,5,75.65-13.33,25.07-18.8,60.18-18.75,85.21-15.39A242.2,242.2,0,0,1,1052.82,450l-.72,1.86c-.84-.32-85-32-132,3.27C903.65,467.49,884.74,471.31,867.64,471.31Z" transform="translate(-520 -248)"/><path class="cls-4" d="M868,463.26c-34.63,0-65.39-12.43-65.85-12.62l.76-1.85c.69.29,69.09,27.9,116.1.07,47.83-28.32,132.91-3,133.76-2.78l-.58,1.91c-.84-.26-85.09-25.28-132.16,2.59C904,460.09,885.47,463.26,868,463.26Z" transform="translate(-520 -248)"/><path class="cls-4" d="M802.51,448.18s69,22.88,117,0,133-2.16,133-2.16" transform="translate(-520 -248)"/><path class="cls-6" d="M1070.27,509.4v29.15s2.33,32.65,15.16,49c0,0,21,29.74,23.9,23.32l-3.59-21.11-12.15-11.54-6.41-36.15-1.75-32.65Z" transform="translate(-520 -248)"/><polygon class="cls-6" points="679.12 524.94 679.12 546.51 661.63 552.93 661.63 527.86 679.12 524.94"/><polygon class="cls-6" points="643.56 522.61 655.22 548.85 638.89 555.84 635.39 530.19 643.56 522.61"/><path class="cls-7" d="M1192.71,569.45s23.32,210.49,14.58,211.07-25.66,11.66-25.66,4.08-13.41-106.11-13.41-106.11l-12.82-50.73v70L1168.81,777s-12.83,16.91-22.16,7l-19.82-77.55s-26.24-117.77-25.08-127.1C1101.75,579.37,1161.81,528.06,1192.71,569.45Z" transform="translate(-520 -248)"/><path class="cls-7" d="M1188.05,795.68s4.66-9.91,15.16-3.5l8.74,10.5s22.55,18.67,6.55,22.67c-16.49,4.12-26.37-.26-26.37-.26s-2.92-1.75-5.25-1.75-7.58-4.08-7.58-5.25,1.75-21.83,1.75-21.83a3.69,3.69,0,0,1,4.08.59C1186.88,798.6,1188.05,795.68,1188.05,795.68Z" transform="translate(-520 -248)"/><path class="cls-7" d="M1153.65,792.18s11.07-8.74,16.32,1.17c0,0,3.31,1.16,3.69,0S1177,791.6,1177,798s3.16,22.41.25,23-5.83,2.33-5.25,4.66-3.16,2.66-16.57,2.08-14-5.83-14-5.83,0-7.58,3.5-11.66S1153.65,792.18,1153.65,792.18Z" transform="translate(-520 -248)"/><path class="cls-6" d="M1132.07,410.28s-2.91,21.57,15.75,29.15-41.4,32.65-47.23,18.08,1.16-19.24,1.16-19.24,5.83-5.83.59-21.58Z" transform="translate(-520 -248)"/><circle class="cls-6" cx="593.42" cy="151.79" r="25.65"/><path class="cls-8" d="M1143.15,446.43s-17.49,9.33-34.4,2.33-16.32,23.32-16.32,23.32l8.74,22.74,60.64-5.83-4.08-35Z" transform="translate(-520 -248)"/><path class="cls-1" d="M1134.46,426.48a21.17,21.17,0,0,1,14.52,11.2l28,8.75,7,9.91-8.17,71.72S1191,542.63,1191,550.8s18.66,36.15,9.33,32.65-26.24-15.74-26.24-15.74-42.56,1.74-56,13.41-18.66,8.16-18.66,8.16-14-60.64-14.57-70-16.91-65.3-16.91-65.3l29.15-16.33,7.43-8.42,20.56,32.91,18.65-22.74S1134.52,432.18,1134.46,426.48Z" transform="translate(-520 -248)"/><path class="cls-6" d="M1192.71,501.24l3.5,18.65S1212,578.2,1209.62,598c0,0,1.75,44.32-8.16,39.07s-4.67-37.32-4.67-37.32l-14-57.72-7.58-33.82Z" transform="translate(-520 -248)"/><path class="cls-1" d="M1178.13,452.84l5.84,3.5s22.15,46.06,16.9,49.56-28,11.08-28,11.08Z" transform="translate(-520 -248)"/><polygon class="cls-1" points="561.93 206.01 548.23 205.72 545.02 211.26 549.1 267.81 570.09 272.48 561.93 206.01"/><path class="cls-7" d="M1134.31,378.09l4.62-1.68s-9.67-9.67-23.12-8.83l3.78-3.78s-9.24-3.37-17.65,5.46c-4.42,4.64-9.54,10.1-12.72,16.24h-5l2.07,4.13-7.23,4.14,7.42-.74a20.92,20.92,0,0,0,.7,10.7l1.69,4.62s6.72-13.45,6.72-15.13v4.21s4.63-3.79,4.63-6.31l2.52,2.94,1.26-4.62,15.55,4.62-2.52-3.78,9.67,1.26-3.78-4.62s10.93,5.46,11.35,10.09,3.3,10.65,3.3,10.65l3.5-4.08S1146.5,384.39,1134.31,378.09Z" transform="translate(-520 -248)"/><ellipse class="cls-6" cx="614.99" cy="152.08" rx="2.04" ry="5.25"/><path class="cls-1" d="M561.63,795C574.06,818.07,600.44,828,600.44,828s6.23-27.48-6.2-50.52-38.81-33-38.81-33S549.21,772,561.63,795Z" transform="translate(-520 -248)"/><path class="cls-3" d="M570.18,787.43c22.43,13.5,31.08,40.32,31.08,40.32s-27.74,4.92-50.18-8.58S520,778.86,520,778.86,547.74,773.93,570.18,787.43Z" transform="translate(-520 -248)"/><path class="cls-4" d="M802.51,445.35s69-36,117,0,133,3.4,133,3.4" transform="translate(-520 -248)"/><circle class="cls-5" cx="407.75" cy="552.68" r="11"/></svg>