<svg id="Layer_1" data-name="Layer 1" xmlns="http://www.w3.org/2000/svg" viewBox="0 0 815.96 491.39"><defs><style>.cls-1{fill:#f2f2f2;}.cls-2{fill:#3f3d56;}.cls-3{opacity:0.1;}.cls-3,.cls-8{isolation:isolate;}.cls-4{fill:none;stroke:#3f3d56;stroke-miterlimit:10;stroke-width:2.68px;}.cls-5{fill:#303f9f;}.cls-6{fill:#46455b;}.cls-7{fill:#a8a8a8;}.cls-8{opacity:0.2;}.cls-9{fill:#a0616a;}.cls-10{fill:#605d82;}.cls-11{fill:#535070;}.cls-12{fill:#fff;}.cls-13{fill:#57b894;}</style></defs><title>bulk-sms</title><g id="Group_40" data-name="Group 40"><path id="Path_206" data-name="Path 206" class="cls-1" d="M1055.16,539.36l7-1.21c.68-.12,1.35-.27,2-.39a57.43,57.43,0,0,1,36.68-105.87l-9.18,21.82,21.74-19,.15.05a57.42,57.42,0,0,1,35.1,73.24v0c-.37,1-.81,2-1.21,3a68.46,68.46,0,0,0,16.81-11.27c9.72-9.31,15-22.15,21-38,11.78-31.36,23.12-63.18,34-95.06a57.41,57.41,0,0,1-26.84-69.53c.58-1.66,1.26-3.25,2-4.83l.53-1.17c.73-1.5,1.5-3,2.34-4.39l.43-.68c.74-1.19,1.51-2.35,2.33-3.47.3-.42.61-.84.92-1.25q1.38-1.81,2.89-3.5c.33-.38.69-.73,1-1.1.77-.81,1.57-1.61,2.39-2.37.43-.41.85-.81,1.3-1.21l.33-.31v0a57.39,57.39,0,0,1,73.44-1.65l-11.93,28.39L1291.89,281a57.11,57.11,0,0,1,2.12,67.65h.06c-.23.35-.5.66-.74,1-.45.64-.92,1.26-1.39,1.88-.61.79-1.24,1.55-1.88,2.3-.49.56-1,1.13-1.48,1.68-.74.8-1.52,1.54-2.3,2.29-.46.44-.9.9-1.37,1.32-1.24,1.1-2.51,2.15-3.83,3.14-.47.35-1,.65-1.43,1-.92.65-1.86,1.29-2.82,1.87-.59.37-1.21.71-1.82,1.06-.88.5-1.77,1-2.68,1.44-.65.32-1.29.63-1.95.93-.93.42-1.88.8-2.83,1.19-.63.25-1.27.5-1.92.73-1.07.38-2.15.71-3.25,1-.55.16-1.09.34-1.65.48-1.64.42-3.29.77-5,1.05-.31.05-.63.07-1,.11-1.39.21-2.79.37-4.19.47-.61,0-1.22.05-1.83.07-1.13,0-2.27.07-3.42,0-.67,0-1.34,0-2-.08-1.12-.06-2.23-.16-3.35-.29-.66-.08-1.32-.16-2-.26-1.2-.18-2.39-.41-3.59-.68l-.23,0q-6.9,20.17-14,40.27a57.4,57.4,0,0,1,81.06,4.3c.75.83,1.47,1.68,2.17,2.56l-19.86,22,26.89-10.74a57.25,57.25,0,0,1,2.29,43.73,56.46,56.46,0,0,1-7.29,14.12,57.42,57.42,0,0,1-103.75-25.19c-.5,1.34-1,2.71-1.5,4.06-5.25,14-11.78,31.34-24.89,43.9-8.89,8.52-19.83,13.92-30.33,18.49q-10.24,4.46-20.77,8.24a57.62,57.62,0,0,1-25.71,8.2q-16.59,4.61-33.59,7.62l-7.05,1.21c-6.34,1.08-12.84,2.21-19.29,3.49.93.27,1.86.54,2.78.87a57.45,57.45,0,0,1,38.36,55.9l-44.22,13.57,40,6.36a57.46,57.46,0,0,1-95.75,17l1.23,4.08c.8,2.68,1.61,5.36,2.39,8,10.53,36.18,6,64.64-12.76,80.14l-10.18-12.33C978.66,717.1,973,686,968,668.83c-.76-2.6-1.55-5.24-2.35-7.89-6.86-22.78-14.63-48.6-4.56-72.34C976.28,552.86,1020,545.37,1055.16,539.36Z" transform="translate(-500.04 -258.85)"/><path id="Path_207" data-name="Path 207" class="cls-2" d="M1042.2,749.17H732.35A38.31,38.31,0,0,1,694,710.86v-142a15.2,15.2,0,0,1,4.74-11L863,402.25a35.34,35.34,0,0,1,48.62,0l156.54,148.4a39.64,39.64,0,0,1,12.38,28.79V710.86a38.31,38.31,0,0,1-38.31,38.31Z" transform="translate(-500.04 -258.85)"/><path id="Path_208" data-name="Path 208" class="cls-3" d="M694,571.24h383.24V726a23.13,23.13,0,0,1-23.13,23.13h-337A23.13,23.13,0,0,1,694,726V571.24Z" transform="translate(-500.04 -258.85)"/><path id="Path_209" data-name="Path 209" class="cls-4" d="M693.64,562" transform="translate(-500.04 -258.85)"/><rect id="Rectangle_55" data-name="Rectangle 55" class="cls-5" x="244.32" y="190.41" width="285.02" height="285.02" rx="70.26"/><path id="Path_210" data-name="Path 210" class="cls-3" d="M1029.38,577.64V734.28h-285V577.64l142.51,68.88Z" transform="translate(-500.04 -258.85)"/><path id="Path_211" data-name="Path 211" class="cls-2" d="M886.87,655.38l-182.6-88.26a7.4,7.4,0,0,0-9.89,3.45,7.31,7.31,0,0,0-.74,3.22V725.64a23.13,23.13,0,0,0,23.13,23.13H1057a23.13,23.13,0,0,0,23.14-23.13V576.39a9,9,0,0,0-13-8.14Z" transform="translate(-500.04 -258.85)"/><rect id="Rectangle_56" data-name="Rectangle 56" class="cls-1" x="268.88" y="216.58" width="79.71" height="11.27"/><rect id="Rectangle_57" data-name="Rectangle 57" class="cls-1" x="262.44" y="257.64" width="236.71" height="6.44"/><rect id="Rectangle_58" data-name="Rectangle 58" class="cls-1" x="262.44" y="279.38" width="236.71" height="6.44"/><rect id="Rectangle_59" data-name="Rectangle 59" class="cls-1" x="262.44" y="301.12" width="236.71" height="6.44"/><line id="Line_5" data-name="Line 5" class="cls-4" x1="49.08" y1="489.92" x2="712.51" y2="489.92"/><path id="Path_212" data-name="Path 212" class="cls-6" d="M500,649.63c0,47.47,29.79,85.88,66.59,85.88" transform="translate(-500.04 -258.85)"/><path id="Path_213" data-name="Path 213" class="cls-5" d="M566.63,735.51c0-48,33.23-86.85,74.3-86.85" transform="translate(-500.04 -258.85)"/><path id="Path_214" data-name="Path 214" class="cls-5" d="M524.16,653.93c0,45.09,19,81.59,42.46,81.59" transform="translate(-500.04 -258.85)"/><path id="Path_215" data-name="Path 215" class="cls-6" d="M566.63,735.51c0-61.34,38.41-111,85.88-111" transform="translate(-500.04 -258.85)"/><path id="Path_216" data-name="Path 216" class="cls-7" d="M552.62,736.12s9.44-.29,12.29-2.32,14.52-4.44,15.23-1.19,14.19,16.16,3.52,16.25-24.77-1.66-27.61-3.39S552.62,736.12,552.62,736.12Z" transform="translate(-500.04 -258.85)"/><path id="Path_217" data-name="Path 217" class="cls-8" d="M583.86,747.72c-10.66.09-24.77-1.66-27.61-3.38-2.17-1.32-3-6.05-3.32-8.23h-.31s.6,7.62,3.44,9.34,17,3.49,27.61,3.39c3.08,0,4.14-1.12,4.08-2.74C587.32,747.09,586.15,747.71,583.86,747.72Z" transform="translate(-500.04 -258.85)"/><path id="Path_218" data-name="Path 218" class="cls-9" d="M1079.51,389.89c-.48,4.31-3.77,7.79-5,11.95-1.83,6.27,1.34,13,5.67,17.87a39.54,39.54,0,0,0,27.57,13.09,11.72,11.72,0,0,0,4.56-.49,9.85,9.85,0,0,0,3.47-2.37,22.24,22.24,0,0,0,5.72-12.4,66.89,66.89,0,0,0,.15-13.86,7.75,7.75,0,0,0-.52-2.78,7.3,7.3,0,0,0-1.8-2.22,42.13,42.13,0,0,0-7.72-5.6,9,9,0,0,1-3.24-2.48,8.13,8.13,0,0,1-1-3l-.85-4.35a8.56,8.56,0,0,0-1.25-3.52,8.7,8.7,0,0,0-6.92-2.42l-9.26-.36a44.32,44.32,0,0,0-9.49-.37c-2.63.53-1.76,2.95-1.28,5.15A37,37,0,0,1,1079.51,389.89Z" transform="translate(-500.04 -258.85)"/><path id="Path_219" data-name="Path 219" class="cls-3" d="M1079.51,389.89c-.48,4.31-3.77,7.79-5,11.95-1.83,6.27,1.34,13,5.67,17.87a39.54,39.54,0,0,0,27.57,13.09,11.72,11.72,0,0,0,4.56-.49,9.85,9.85,0,0,0,3.47-2.37,22.24,22.24,0,0,0,5.72-12.4,66.89,66.89,0,0,0,.15-13.86,7.75,7.75,0,0,0-.52-2.78,7.3,7.3,0,0,0-1.8-2.22,42.13,42.13,0,0,0-7.72-5.6,9,9,0,0,1-3.24-2.48,8.13,8.13,0,0,1-1-3l-.85-4.35a8.56,8.56,0,0,0-1.25-3.52,8.7,8.7,0,0,0-6.92-2.42l-9.26-.36a44.32,44.32,0,0,0-9.49-.37c-2.63.53-1.76,2.95-1.28,5.15A37,37,0,0,1,1079.51,389.89Z" transform="translate(-500.04 -258.85)"/><path id="Path_220" data-name="Path 220" class="cls-10" d="M1138.44,584l-3.94,43.17c-1,11.32-2.07,22.68-4.09,33.86-.7,3.85-1.51,7.68-2.48,11.48-2.68,10.54-6.59,20.85-7.86,31.67,0,.31-.07.63-.1,1a27.5,27.5,0,0,1-1.34,7c-.63,1.65-1.61,3.16-2.28,4.79a30.42,30.42,0,0,0-1.71,10.4,44.8,44.8,0,0,0-15.43-5.28,11.76,11.76,0,0,1-7.32-2.63,10.44,10.44,0,0,1-1.43-8.37l3.12-27a69.94,69.94,0,0,1,2-11.48c.35-1.25.78-2.48,1.22-3.71.61-1.7,1.22-3.4,1.67-5.14a62,62,0,0,0,1.38-8.56c1.07-9.07,2.35-18.11,3.49-27.17l.06-.48a276.45,276.45,0,0,0,2.6-41.37q-.08-3.06-.26-6.15c-.19-3-.46-4.56,2-6.41a46.41,46.41,0,0,1,9.43-4.84c1.68-.73,20.14-7.28,20.57-5.84a35.37,35.37,0,0,1,1.34,9.42A103.84,103.84,0,0,1,1138.44,584Z" transform="translate(-500.04 -258.85)"/><path id="Path_221" data-name="Path 221" class="cls-3" d="M1130.41,661c-.7,3.85-1.51,7.68-2.48,11.48-2.68,10.54-6.59,20.85-7.86,31.66,0,.32-.07.64-.1,1-8.23-11.75-15.17-24.4-23.2-36.29.6-1.69,1.21-3.39,1.67-5.13a62,62,0,0,0,1.38-8.56c1.07-9.07,2.35-18.11,3.49-27.17l.06-.48a28.25,28.25,0,0,0,2,5.57c5.4,11,18.22,16.51,24.49,27C1130.05,660.33,1130.23,660.65,1130.41,661Z" transform="translate(-500.04 -258.85)"/><path id="Path_222" data-name="Path 222" class="cls-10" d="M1063.61,564.58a202.05,202.05,0,0,0,3.09,26.19l2.89,17.92c1.59,9.8,3.24,19.81,7.88,28.59a132.16,132.16,0,0,0,13,18.07c11.12,14.5,19.48,30.91,30,45.83,3.07,4.33,7.45,9,12.68,8.11,3.44-.59,5.93-3.45,8.63-5.65,3.19-2.6,7-4.5,9.52-7.76s3-8.67-.39-11a17.54,17.54,0,0,0-3.89-1.58c-5.25-2-8.66-7.14-10.83-12.33a116.85,116.85,0,0,0-6.36-15.61c-6.27-10.49-19.09-16-24.48-27-3-6.14-3.32-13.22-3.55-20.06l-.59-17.45a12.82,12.82,0,0,1,.66-5.63c2.07-4.65,8.3-5.08,13.35-5.67a45.81,45.81,0,0,0,16.35-5.15,17.11,17.11,0,0,0,7.3-6.49,20.93,20.93,0,0,0,1.78-8.79l1.75-31.61a19.71,19.71,0,0,0-.67-8.08c-2.42-6.4-10.49-8.49-17.32-8.18-12.71.56-24.45,6-36.44,9.73-3,.93-6,1.72-9,2.35a73.79,73.79,0,0,0-8.51,1.18c-4.57,1.54-4.45,11.52-5.1,15.66A131.38,131.38,0,0,0,1063.61,564.58Z" transform="translate(-500.04 -258.85)"/><path id="Path_223" data-name="Path 223" class="cls-11" d="M1131.46,710.63a8.1,8.1,0,0,1,1.78,4.35,148,148,0,0,1,2.51,26.32,4.3,4.3,0,0,0,.48,2.39,2.87,2.87,0,0,0,1.24,1c3.23,1.55,7-.61,9.7-3,5-4.38,9.24-10.27,9.52-16.91a40,40,0,0,1,.18-5.13,21.56,21.56,0,0,1,3.18-6.9,57.77,57.77,0,0,0,5.27-11.8c.49-1.55.82-3.49-.39-4.58a4.4,4.4,0,0,0-1.44-.75l-14.64-5.44c-1.27-.47-4.43,7.64-4.92,8.53a6.72,6.72,0,0,1-4.91,3.9c-2.51.51-5.49-.23-7.83,1C1127.22,705.77,1129.21,708.36,1131.46,710.63Z" transform="translate(-500.04 -258.85)"/><path id="Path_224" data-name="Path 224" class="cls-11" d="M1108.87,715.62a4.37,4.37,0,0,0-1.12-1.41,5,5,0,0,0-2.24-.76c-2.79-.47-6.09-.79-8,1.28s-1.49,5.1-3,7.29c-.47.69-1.12,1.26-1.53,2a7.41,7.41,0,0,0-.68,3.56c-.08,3.38-.15,6.76.08,10.13a14.17,14.17,0,0,0,2.44,8c2.83,3.55,8,4.06,12.48,4.3l3.68.18a7,7,0,0,0,3-.27,4.93,4.93,0,0,0,2.6-2.85c1.91-4.76-1.12-9.88-3-14.66C1111.44,726.9,1111.82,720.81,1108.87,715.62Z" transform="translate(-500.04 -258.85)"/><path id="Path_225" data-name="Path 225" class="cls-2" d="M1078.44,365.61a3.14,3.14,0,0,1,.21-1.42c.54-.95,1.94-.69,3-.42,4.26,1.07,8.75.1,13.15.35s9.33,2.45,10.22,6.76a32.2,32.2,0,0,0,8.1-8.32,10,10,0,0,0,2.12-6.1c-.24-3.16-2.89-5.52-5.34-7.52l-7.3-6a11,11,0,0,0-3.27-2.08,16.36,16.36,0,0,0-5.31-.3c-5.32,0-11-2.42-15.72,0a16.9,16.9,0,0,0-4.89,4.45l-6.53,7.72a4.18,4.18,0,0,0-1,1.77,7.74,7.74,0,0,0,.47,2.82c.31,1.72-.43,3.56.14,5.22.94,2.75,4.29,3.14,6.32,4.71.76.59,2,2.58,2.86,2.56C1077.27,369.8,1078.4,366.88,1078.44,365.61Z" transform="translate(-500.04 -258.85)"/><circle id="Ellipse_48" data-name="Ellipse 48" class="cls-9" cx="589.47" cy="108.63" r="20.88"/><path id="Path_226" data-name="Path 226" class="cls-2" d="M1094.39,413.18a10.11,10.11,0,0,0-9.85-6.78,3,3,0,0,1-1.81-.23,2.6,2.6,0,0,1-.75-.93,36.42,36.42,0,0,1-3-7.2c-.33-1.11-.79-2.42-1.91-2.69a2.59,2.59,0,0,0-2.43,1.06,21.5,21.5,0,0,1-1.73,2.18c-2.63,2.35-7.29.21-10.07,2.37-.46.35-.83.8-1.31,1.12a5.73,5.73,0,0,1-1.53.65,148.82,148.82,0,0,0-15.81,6.19,149.73,149.73,0,0,0,8.1,33c2.07,5,4.42,9.84,6.07,15,3.67,11.35,3.83,23.5,3.87,35.44a73.67,73.67,0,0,1-2.65,24.23,23,23,0,0,0-1.49,5.33,5.5,5.5,0,0,0,1.88,5,6.31,6.31,0,0,0,2.88,1,37.15,37.15,0,0,0,13.7-1.59c12.08-2.8,24.41-4.4,36.71-6l20.61-2.68a12.19,12.19,0,0,0,4.27-1.1c3.77-2.07,4.13-7.74,1.78-11.35-1.3-1.6-2.51-3.26-3.65-5a4.63,4.63,0,0,1,.6-5.66c3.31-2.59,2.32-7.38,2.48-11.57q.66-17.58-.18-35.16a70.89,70.89,0,0,1-.11-7.29,63.83,63.83,0,0,1,2.27-12.17l6.26-24.66a12.86,12.86,0,0,0-7.73-5c-3-.74-6.06-1-9-1.88-6-1.85-11.32-6.56-17.57-6.12a3.17,3.17,0,0,0-1.36.33c-1.41.81-1.19,2.83-1.28,4.45a12.3,12.3,0,0,1-5.74,8.67,102.85,102.85,0,0,0-8.9,6A4,4,0,0,0,1094.39,413.18Z" transform="translate(-500.04 -258.85)"/><path id="Path_227" data-name="Path 227" class="cls-9" d="M1011.67,436.57a26,26,0,0,1-4.39,2.26,14,14,0,0,0-4.21,2,6.49,6.49,0,0,0-1.46,1.8,8,8,0,0,0,7.41,12,16.23,16.23,0,0,0,5.48-1.64l14.73-6.38a11.56,11.56,0,0,0,6.36-4.79,1.07,1.07,0,0,0,.14-.76,1.25,1.25,0,0,0-.6-.64,32.75,32.75,0,0,1-8.59-8.09c-.6-.82-1.34-2.75-2.2-3.25C1021.24,427.31,1014.16,435,1011.67,436.57Z" transform="translate(-500.04 -258.85)"/><path id="Path_228" data-name="Path 228" class="cls-9" d="M1169.11,431.33l5.43,6.2c1.16,1.35,2.33,2.67,3.39,4.08a47.42,47.42,0,0,1,6.22,11.72,20.52,20.52,0,0,1,1.75,9.68,24,24,0,0,1-1.36,4.93,60.9,60.9,0,0,1-3.69,8.88,51.76,51.76,0,0,1-4.15,6.22,144.93,144.93,0,0,1-13.76,15.74,18,18,0,0,0-3.45,7.3,30.41,30.41,0,0,1-8.46,11.54,24.07,24.07,0,0,1-3.63,3.13,11.87,11.87,0,0,1-6.62,1.87,7.26,7.26,0,0,1-3-.61,7.7,7.7,0,0,1-3.78-6.42,13.6,13.6,0,0,1,1.14-6.86c3.11-6.9,11.11-9.89,16.77-14.92a54.62,54.62,0,0,0,8.35-10.33,35.28,35.28,0,0,0,4.22-7.41c1.27-3.37.77-7.36,1.88-10.78.47-1.45,1.3-2.76,1.8-4.19a4.92,4.92,0,0,0-.25-4.39,6.39,6.39,0,0,0-2.46-1.8c-3.61-1.83-7.66-4.19-8.35-8.18a8.81,8.81,0,0,1,1.61-6.25,26.53,26.53,0,0,1,4.57-4.78C1164.86,434.3,1167.52,432.72,1169.11,431.33Z" transform="translate(-500.04 -258.85)"/><path id="Path_229" data-name="Path 229" class="cls-9" d="M1008.18,445.22a10,10,0,0,0-4.09-4.87,7.55,7.55,0,0,0-6,0,22.44,22.44,0,0,0-5.22,3.16l-4.68,3.45a11.43,11.43,0,0,0-2.77,2.56,10.93,10.93,0,0,0-1.45,4,28.25,28.25,0,0,0-.73,9.82,27.81,27.81,0,0,0,7.42,13.9,12.31,12.31,0,0,0,8.22,5.15,3.76,3.76,0,0,0,3.63-1.82,4.34,4.34,0,0,0,.32-1.63,36.22,36.22,0,0,0-4.2-17,10.9,10.9,0,0,1-1.34-4.56,1.24,1.24,0,0,1,.2-.77,1.3,1.3,0,0,1,.81-.39c3.36-.66,9.15,1.95,11.5-1.78C1011.36,452,1009.27,447.42,1008.18,445.22Z" transform="translate(-500.04 -258.85)"/><path id="Path_230" data-name="Path 230" class="cls-2" d="M1077.35,359a3,3,0,0,1,.21-1.42c.53-.95,1.94-.69,3-.42,4.27,1.07,8.76.1,13.15.35s9.34,2.45,10.22,6.76A32.08,32.08,0,0,0,1112,356a10,10,0,0,0,2.11-6.1c-.23-3.16-2.88-5.52-5.33-7.52l-7.31-6a11,11,0,0,0-3.27-2.08,16.33,16.33,0,0,0-5.31-.3c-5.31,0-11-2.42-15.71,0a16.94,16.94,0,0,0-4.9,4.45l-6.52,7.72a4.08,4.08,0,0,0-1,1.77,8,8,0,0,0,.46,2.82c.31,1.72-.43,3.56.14,5.22,1,2.75,4.3,3.14,6.33,4.71.76.59,2,2.58,2.86,2.56C1076.18,363.23,1077.3,360.31,1077.35,359Z" transform="translate(-500.04 -258.85)"/><path id="Path_231" data-name="Path 231" class="cls-2" d="M1033,416.26a8.31,8.31,0,0,0-2.19,2c-.76,1.16-.92,2.62-1.58,3.84-1.4,2.62-4.7,3.55-6.75,5.69a2.17,2.17,0,0,0-.65,1.12,2.5,2.5,0,0,0,.55,1.61l9.9,15.56c3.3.29,6.46-1.77,9.76-1.5a9.86,9.86,0,0,0,3.67.17,10.62,10.62,0,0,0,2.36-1.45c2-1.24,4.58-1.39,6.24-3a8.52,8.52,0,0,0,1.76-6.27,25.4,25.4,0,0,0-.58-5.77c-1.46-6-6-10.56-8.89-15.85-1.4-2.58-2.15-4.09-5.1-2.32S1035.8,414.22,1033,416.26Z" transform="translate(-500.04 -258.85)"/><path id="Path_232" data-name="Path 232" class="cls-2" d="M1153.25,408.39a23.29,23.29,0,0,1,5,4.36c1.51,1.95,2.36,4.33,3.81,6.32,1.55,1.81,3.19,3.55,4.91,5.2a39.86,39.86,0,0,1,5.67,9.21,137.46,137.46,0,0,1-12.8,14.48,4.18,4.18,0,0,1-2,1.27,3.14,3.14,0,0,1-2.75-1.12c-.71-.75-1.22-1.67-1.9-2.45a9.77,9.77,0,0,0-6-2.92,41.35,41.35,0,0,0-6.86-.1,2.62,2.62,0,0,1-1.46-.25,2.45,2.45,0,0,1-.81-.91c-2.68-4.57-1.81-10.29-.87-15.5l2.17-11.94a26.9,26.9,0,0,1,1.81-6.64c.82-1.76,2.66-4.74,4.92-4.21S1151.33,407,1153.25,408.39Z" transform="translate(-500.04 -258.85)"/><ellipse id="Ellipse_49" data-name="Ellipse 49" class="cls-12" cx="256" cy="194.9" rx="33.01" ry="33.07"/><path id="Path_233" data-name="Path 233" class="cls-13" d="M756,415a39.45,39.45,0,1,0,39.45,39.45A39.45,39.45,0,0,0,756,415Zm-8.1,60.49-20.22-20.22,5.67-5.67L748,464.2l30.74-30.74,5.67,5.67-36.43,36.4Z" transform="translate(-500.04 -258.85)"/></g></svg>