<svg id="Layer_1" data-name="Layer 1" xmlns="http://www.w3.org/2000/svg" viewBox="0 0 607.87 390.78"><defs><style>.cls-1{fill:#f2f2f2;}.cls-2{fill:none;stroke:#3f3d56;stroke-miterlimit:10;stroke-width:2.1px;}.cls-3{fill:#303f9f;}.cls-4{fill:#ffc1c7;}.cls-5{fill:#3f3d56;}.cls-6{fill:#2f2e41;}.cls-7{opacity:0.1;isolation:isolate;}</style></defs><title>erp-solutions</title><g id="Group_48" data-name="Group 48"><ellipse id="Ellipse_52" data-name="Ellipse 52" class="cls-1" cx="96.56" cy="378.42" rx="77.03" ry="12.36"/><ellipse id="Ellipse_53" data-name="Ellipse 53" class="cls-2" cx="102.59" cy="371.24" rx="77.03" ry="12.36"/><rect id="Rectangle_86" data-name="Rectangle 86" class="cls-3" x="47.12" y="16.57" width="231.66" height="137.96" rx="47.87"/><rect id="Rectangle_87" data-name="Rectangle 87" class="cls-1" x="351.21" y="126.94" width="231.66" height="137.96" rx="47.87"/><rect id="Rectangle_88" data-name="Rectangle 88" class="cls-2" x="29.3" y="1.05" width="231.66" height="137.96" rx="47.87"/><rect id="Rectangle_89" data-name="Rectangle 89" class="cls-2" x="333.39" y="111.42" width="231.66" height="137.96" rx="47.87"/><path id="Path_304" data-name="Path 304" class="cls-2" d="M1156.17,350.4a13.2,13.2,0,0,0-11.39,8c-2.85,6.88.82,15,6.33,20s12.57,7.89,19,11.66a50.89,50.89,0,0,1,20.7,21.12c4.32,9,4.78,20.2-.3,28.83-4.71,8-13.27,12.78-21.44,17.21" transform="translate(-604.13 -308.56)"/><ellipse id="Ellipse_54" data-name="Ellipse 54" class="cls-3" cx="559.3" cy="42.43" rx="10.06" ry="4.89"/><ellipse id="Ellipse_55" data-name="Ellipse 55" class="cls-3" cx="567.34" cy="74.62" rx="10.06" ry="4.89"/><ellipse id="Ellipse_56" data-name="Ellipse 56" class="cls-3" cx="548.95" cy="79.8" rx="10.06" ry="4.89"/><ellipse id="Ellipse_57" data-name="Ellipse 57" class="cls-3" cx="577.69" cy="106.82" rx="10.06" ry="4.89"/><ellipse id="Ellipse_58" data-name="Ellipse 58" class="cls-3" cx="597.81" cy="106.82" rx="10.06" ry="4.89"/><path id="Path_305" data-name="Path 305" class="cls-2" d="M617.55,571.13a13.21,13.21,0,0,0-11.38,8c-2.85,6.88.82,15,6.32,20s12.58,7.89,19,11.66a51,51,0,0,1,20.7,21.12c4.31,9,4.77,20.21-.3,28.83-4.71,8-13.28,12.79-21.44,17.21" transform="translate(-604.13 -308.56)"/><ellipse id="Ellipse_59" data-name="Ellipse 59" class="cls-3" cx="20.68" cy="263.17" rx="10.06" ry="4.89"/><ellipse id="Ellipse_60" data-name="Ellipse 60" class="cls-3" cx="28.73" cy="295.36" rx="10.06" ry="4.89"/><ellipse id="Ellipse_61" data-name="Ellipse 61" class="cls-3" cx="10.33" cy="300.53" rx="10.06" ry="4.89"/><ellipse id="Ellipse_62" data-name="Ellipse 62" class="cls-3" cx="39.08" cy="327.55" rx="10.06" ry="4.89"/><ellipse id="Ellipse_63" data-name="Ellipse 63" class="cls-3" cx="59.19" cy="327.55" rx="10.06" ry="4.89"/><path id="Path_306" data-name="Path 306" class="cls-4" d="M751.56,465.39s1.15,8.63-1.73,12.08-7.47,26.44-7.47,26.44V517.7s17.81-25.86,21.27-36.21a27.75,27.75,0,0,0,0-18.39Z" transform="translate(-604.13 -308.56)"/><path id="Path_307" data-name="Path 307" class="cls-5" d="M749.84,422.85l.24.27A36.38,36.38,0,0,1,757,434.5c3.77,10,11.89,34.72,9,37.21-4,3.45-15.52,5.75-16.1,5.17s-12.07-36.21-12.07-36.21Z" transform="translate(-604.13 -308.56)"/><path id="Path_308" data-name="Path 308" class="cls-5" d="M731.15,667.15s13.8,2.88,14.37,0a23.61,23.61,0,0,1,1.72-5.17s12.51.52,9.24,11.48a4.56,4.56,0,0,1-2,2.59c-3,1.82-10,6.12-13.55,8.35-2.68,1.68-6.53.42-9.28-.91a5,5,0,0,1-2.67-5.44Z" transform="translate(-604.13 -308.56)"/><path id="Path_309" data-name="Path 309" class="cls-5" d="M691.49,668.88s-13.8,2.87-14.37,0a23,23,0,0,0-1.73-5.17s-12.48.52-9.25,11.45a4.64,4.64,0,0,0,2.05,2.63c3,1.84,10,6.12,13.53,8.34,2.93,1.83,7.27.15,10-1.3a4,4,0,0,0,2.07-4.32Z" transform="translate(-604.13 -308.56)"/><path id="Path_310" data-name="Path 310" class="cls-4" d="M674.24,472.87s-1.15,8.62,1.73,12.07,7.47,16.67,7.47,16.67v13.8s-17.81-16.1-21.27-26.45a27.88,27.88,0,0,1,0-18.39Z" transform="translate(-604.13 -308.56)"/><circle id="Ellipse_64" data-name="Ellipse 64" class="cls-4" cx="110.35" cy="79.23" r="14.37"/><path id="Path_311" data-name="Path 311" class="cls-4" d="M726,393.54s-4,18.4,0,20.69-24.14,0-24.14,0,6.32-15.51,3.45-20.69S726,393.54,726,393.54Z" transform="translate(-604.13 -308.56)"/><path id="Path_312" data-name="Path 312" class="cls-6" d="M739.77,516s5.18,7.48,3.45,30.47-3.45,47.13-3.45,47.13,12.65,72.43,8.63,74.16-17.25,3.45-19,1.72-9.78-69-9.78-69l-7.47-55.18-11.5,63.23S694.36,670,689.76,672.9c-3.29,2.05-9.8.59-13.25-.42a3,3,0,0,1-2.17-3c.42-9.67,2.3-47.85,6.8-71.29,5.17-27-5.17-81.06,4-82.21S739.77,516,739.77,516Z" transform="translate(-604.13 -308.56)"/><path id="Path_313" data-name="Path 313" class="cls-5" d="M699.54,411.93s2.3-10.35,10.92-9.2,14.37.58,16.1,6.33,20.12,10.34,20.12,10.34,4.59.58,4,8.05-12.07,35.06-12.07,35.06.57,23,3.45,33.35,2.87,23-3.45,25.86-46,13.22-55.19.58c0,0-5.17-18.4-1.72-25.87s-.58-36.79-.58-36.79L670.22,435.5s3.45-11.5,13.22-14.95A58.28,58.28,0,0,0,699.54,411.93Z" transform="translate(-604.13 -308.56)"/><path id="Path_314" data-name="Path 314" class="cls-5" d="M674.82,430.32l-4.6,5.18s-13.8,33.91-9.77,37.36S676,478.61,676.54,478s10.35-29.89,10.35-29.89Z" transform="translate(-604.13 -308.56)"/><path id="Path_315" data-name="Path 315" class="cls-6" d="M731.15,379.17a8.9,8.9,0,0,0-2.87,5.74c-.57,4-4.1-2.29-4.93,6S708.73,405,703.56,401s-13.79-29.31-1.72-33.34,24.14-3.45,26.44.58A32.57,32.57,0,0,1,731.15,379.17Z" transform="translate(-604.13 -308.56)"/><path id="Path_316" data-name="Path 316" class="cls-7" d="M719.9,391c.82-8.33,4.35-2,4.93-6a8.9,8.9,0,0,1,2.87-5.75,32.4,32.4,0,0,0-2.87-10.92c-1.1-1.92-4.44-3.06-8.94-3.28,6.21-.28,11,.89,12.39,3.28a32.63,32.63,0,0,1,2.87,10.92,8.9,8.9,0,0,0-2.87,5.75c-.58,4-4.11-2.29-4.93,6-.7,7.06-10.72,12.27-16.9,11.24C712.35,401.38,719.32,396.81,719.9,391Z" transform="translate(-604.13 -308.56)"/></g></svg>