<svg id="Layer_1" data-name="Layer 1" xmlns="http://www.w3.org/2000/svg" viewBox="0 0 710.99 507.96"><defs><style>.cls-1{fill:#f2f2f2;}.cls-2{fill:#3f3d56;}.cls-3{opacity:0.1;isolation:isolate;}.cls-4{fill:#fff;}</style></defs><title>software-development</title><path id="Path_32" data-name="Path 32" class="cls-1" d="M939.88,807c-156.87-11.9-344-133.13-334.42-258S796.17,308,953.05,319.88s247.16,245.18,237.64,370S1096.75,818.86,939.88,807Z" transform="translate(-605.11 -319.04)"/><ellipse id="Ellipse_11" data-name="Ellipse 11" class="cls-2" cx="347.93" cy="487.95" rx="327.46" ry="20.01"/><ellipse id="Ellipse_12" data-name="Ellipse 12" class="cls-3" cx="347.93" cy="487.63" rx="278.93" ry="13.23"/><rect id="Rectangle_7" data-name="Rectangle 7" class="cls-2" x="109.13" y="104.55" width="486.67" height="380.82"/><path id="Path_33" data-name="Path 33" class="cls-1" d="M952,475.64H832a1.46,1.46,0,0,1-.14-2.91H952a1.46,1.46,0,0,1,.14,2.91H952Z" transform="translate(-605.11 -319.04)"/><path id="Path_34" data-name="Path 34" class="cls-1" d="M1083.45,491.62H894.62a1.46,1.46,0,0,1-.14-2.91h189a1.46,1.46,0,0,1,.15,2.91Z" transform="translate(-605.11 -319.04)"/><path id="Path_35" data-name="Path 35" class="cls-1" d="M952.61,507.61H832.56a1.46,1.46,0,0,1-.14-2.91h120.2a1.46,1.46,0,0,1,.15,2.91h-.16Z" transform="translate(-605.11 -319.04)"/><path id="Path_36" data-name="Path 36" class="cls-1" d="M1083.46,507.9H963.4a1.46,1.46,0,1,1-.15-2.91h120.21a1.46,1.46,0,0,1,.14,2.91Z" transform="translate(-605.11 -319.04)"/><path id="Path_37" data-name="Path 37" class="cls-1" d="M952.91,523.59H832.84a1.46,1.46,0,0,1-.14-2.91H952.91a1.46,1.46,0,0,1,.14,2.91Z" transform="translate(-605.11 -319.04)"/><path id="Path_38" data-name="Path 38" class="cls-1" d="M953.2,539.58H833.14a1.46,1.46,0,0,1-.14-2.91H953.2a1.46,1.46,0,1,1,.14,2.91Z" transform="translate(-605.11 -319.04)"/><path id="Path_39" data-name="Path 39" class="cls-1" d="M1007.69,475.92H973.3a1.45,1.45,0,0,1-.14-2.9h34.53a1.45,1.45,0,1,1,.14,2.9Z" transform="translate(-605.11 -319.04)"/><path id="Path_40" data-name="Path 40" class="cls-1" d="M1007.69,523.59H973.3a1.46,1.46,0,0,1-.14-2.91h34.53a1.46,1.46,0,0,1,.14,2.91Z" transform="translate(-605.11 -319.04)"/><path id="Path_41" data-name="Path 41" class="cls-1" d="M1007.69,539.28H973.3a1.45,1.45,0,1,1,0-2.9h34.39a1.45,1.45,0,1,1,.14,2.9Z" transform="translate(-605.11 -319.04)"/><path id="Path_42" data-name="Path 42" class="cls-1" d="M1065.39,539.28H1031a1.45,1.45,0,0,1,0-2.9h34.39a1.45,1.45,0,1,1,.14,2.9Z" transform="translate(-605.11 -319.04)"/><path id="Path_43" data-name="Path 43" class="cls-1" d="M866.07,491.62H831.68a1.46,1.46,0,1,1-.14-2.91h34.52a1.46,1.46,0,0,1,.15,2.91h-.14Z" transform="translate(-605.11 -319.04)"/><path id="Path_44" data-name="Path 44" class="cls-1" d="M952.18,711.05H832.12a1.45,1.45,0,1,1,0-2.9H952.18a1.45,1.45,0,0,1,0,2.9Z" transform="translate(-605.11 -319.04)"/><path id="Path_45" data-name="Path 45" class="cls-1" d="M951.6,743H831.53a1.45,1.45,0,0,1-.14-2.9H951.6a1.45,1.45,0,1,1,.14,2.9Z" transform="translate(-605.11 -319.04)"/><path id="Path_46" data-name="Path 46" class="cls-1" d="M951.89,759H831.83a1.46,1.46,0,1,1,0-2.91H951.89a1.46,1.46,0,0,1,0,2.91Z" transform="translate(-605.11 -319.04)"/><path id="Path_47" data-name="Path 47" class="cls-1" d="M1003.17,743.31H968.79a1.45,1.45,0,1,1,0-2.9h34.38a1.45,1.45,0,1,1,0,2.9Z" transform="translate(-605.11 -319.04)"/><path id="Path_48" data-name="Path 48" class="cls-1" d="M1003.17,759H968.79a1.46,1.46,0,1,1,0-2.91h34.38a1.46,1.46,0,0,1,0,2.91Z" transform="translate(-605.11 -319.04)"/><path id="Path_49" data-name="Path 49" class="cls-1" d="M1060.87,743.31h-34.39a1.45,1.45,0,0,1,0-2.9h34.39a1.45,1.45,0,1,1,0,2.9Z" transform="translate(-605.11 -319.04)"/><path id="Path_50" data-name="Path 50" class="cls-1" d="M1083.6,727H894.77a1.46,1.46,0,0,1,0-2.91H1083.6a1.46,1.46,0,1,1,0,2.91Z" transform="translate(-605.11 -319.04)"/><path id="Path_51" data-name="Path 51" class="cls-1" d="M866.21,727H831.83a1.46,1.46,0,1,1,0-2.91h34.38a1.46,1.46,0,0,1,0,2.91Z" transform="translate(-605.11 -319.04)"/><path id="Path_52" data-name="Path 52" class="cls-1" d="M1083.6,775.28H894.77a1.45,1.45,0,0,1,0-2.9H1083.6a1.45,1.45,0,1,1,.14,2.9Z" transform="translate(-605.11 -319.04)"/><path id="Path_53" data-name="Path 53" class="cls-1" d="M866.21,775.28H831.83a1.45,1.45,0,1,1,0-2.9h34.38a1.45,1.45,0,1,1,.14,2.9Z" transform="translate(-605.11 -319.04)"/><path id="Path_54" data-name="Path 54" class="cls-4" d="M923.17,577.94l-46.62,45.92,46.62,45.94,10.49-10.46-35.25-35.18L934,588.7Z" transform="translate(-605.11 -319.04)"/><path id="Path_55" data-name="Path 55" class="cls-4" d="M992,577.94l46.64,45.92L992,669.8l-10.48-10.46,35.26-35.18L981.17,588.7Z" transform="translate(-605.11 -319.04)"/><ellipse id="Ellipse_15" data-name="Ellipse 15" class="cls-4" cx="122.07" cy="114.23" rx="5.82" ry="5.81"/><ellipse id="Ellipse_16" data-name="Ellipse 16" class="cls-4" cx="137.6" cy="114.23" rx="5.82" ry="5.81"/><ellipse id="Ellipse_17" data-name="Ellipse 17" class="cls-4" cx="153.13" cy="114.23" rx="5.82" ry="5.81"/><rect id="Rectangle_8" data-name="Rectangle 8" class="cls-3" x="109.13" y="123.91" width="486.67" height="1.94"/><path id="Path_56" data-name="Path 56" class="cls-1" d="M1316.1,711.11c0,41.18-24.54,55.53-54.8,55.53s-54.8-14.37-54.8-55.53,54.8-93.52,54.8-93.52S1316.1,670,1316.1,711.11Z" transform="translate(-605.11 -319.04)"/><path id="Path_57" data-name="Path 57" class="cls-2" d="M1259.3,760.35l.56-34.45,23.36-42.62L1260,720.5l.26-15.49,16.09-30.84-16,26.74h0l.46-27.86L1278,648.5l-17.16,20.17.28-51.09-1.78,67.63.15-2.79-17.53-26.77,17.25,32.11-1.64,31.12,0-.83-20.21-28.16L1257.43,721l-.2,3.89,0,.06,0,.32-4.14,78.92h5.53l.66-40.77,20.09-31Z" transform="translate(-605.11 -319.04)"/></svg>