<svg id="Layer_1" data-name="Layer 1" xmlns="http://www.w3.org/2000/svg" viewBox="0 0 600.5 378.86"><defs><style>.cls-1{fill:#f2f2f2;}.cls-2{fill:#fff;}.cls-11,.cls-12,.cls-3{fill:none;stroke-miterlimit:10;stroke-width:2.24px;}.cls-3{stroke:#3f3d56;}.cls-4{fill:#303f9f;}.cls-5{fill:#57b894;}.cls-6{fill:#2f2e41;}.cls-7{fill:#575a89;}.cls-8{opacity:0.1;}.cls-15,.cls-8{isolation:isolate;}.cls-9{fill:#3f3d56;}.cls-10{fill:#fbbebe;}.cls-11{stroke:#f0f;}.cls-12{stroke:#f2f2f2;}.cls-13{fill:#46455b;}.cls-14{fill:#a8a8a8;}.cls-15{opacity:0.2;}</style></defs><title>web-hosting</title><rect id="Rectangle_24" data-name="Rectangle 24" class="cls-1" x="79.34" y="14.73" width="455.91" height="319.29" rx="69.58"/><path id="Rectangle_25" data-name="Rectangle 25" class="cls-2" d="M778.44,397.15h288.94a13.09,13.09,0,0,1,13.08,13.09h0a13.08,13.08,0,0,1-13.08,13.08H778.44a13.08,13.08,0,0,1-13.08-13.08h0A13.08,13.08,0,0,1,778.44,397.15Z" transform="translate(-607.5 -314.89)"/><rect id="Rectangle_26" data-name="Rectangle 26" class="cls-3" x="93.47" y="1.12" width="455.91" height="319.29" rx="69.58"/><line id="Line_1" data-name="Line 1" class="cls-3" x1="93.74" y1="25.72" x2="549.65" y2="25.72"/><circle id="Ellipse_39" data-name="Ellipse 39" class="cls-4" cx="109.18" cy="15.52" r="6.28"/><circle id="Ellipse_40" data-name="Ellipse 40" class="cls-4" cx="126.98" cy="15.78" r="6.28"/><circle id="Ellipse_41" data-name="Ellipse 41" class="cls-4" cx="144.77" cy="16.04" r="6.28"/><circle id="Ellipse_42" data-name="Ellipse 42" class="cls-3" cx="110.75" cy="13.42" r="6.28"/><circle id="Ellipse_43" data-name="Ellipse 43" class="cls-3" cx="128.55" cy="13.68" r="6.28"/><circle id="Ellipse_44" data-name="Ellipse 44" class="cls-3" cx="146.34" cy="13.95" r="6.28"/><path id="Rectangle_27" data-name="Rectangle 27" class="cls-3" d="M784.2,391.91h288.93A13.09,13.09,0,0,1,1086.22,405h0a13.09,13.09,0,0,1-13.09,13.09H784.2A13.09,13.09,0,0,1,771.11,405h0A13.09,13.09,0,0,1,784.2,391.91Z" transform="translate(-607.5 -314.89)"/><circle id="Ellipse_45" data-name="Ellipse 45" class="cls-3" cx="459.95" cy="86.25" r="4.19"/><line id="Line_2" data-name="Line 2" class="cls-3" x1="463.04" y1="89.45" x2="470.31" y2="96.98"/><rect id="Rectangle_28" data-name="Rectangle 28" class="cls-4" x="171.47" y="88.54" width="56.53" height="9.42" rx="4.71"/><rect id="Rectangle_29" data-name="Rectangle 29" class="cls-3" x="173.04" y="85.92" width="56.53" height="9.42" rx="4.71"/><rect id="Rectangle_30" data-name="Rectangle 30" class="cls-4" x="151.05" y="144.54" width="56.53" height="9.42" rx="4.71"/><rect id="Rectangle_31" data-name="Rectangle 31" class="cls-2" x="151.05" y="174.38" width="56.53" height="9.42" rx="4.71"/><rect id="Rectangle_32" data-name="Rectangle 32" class="cls-2" x="151.05" y="204.21" width="56.53" height="9.42" rx="4.71"/><rect id="Rectangle_33" data-name="Rectangle 33" class="cls-2" x="151.05" y="234.05" width="56.53" height="9.42" rx="4.71"/><rect id="Rectangle_34" data-name="Rectangle 34" class="cls-2" x="151.05" y="263.89" width="56.53" height="9.42" rx="4.71"/><rect id="Rectangle_35" data-name="Rectangle 35" class="cls-3" x="153.67" y="141.4" width="56.53" height="9.42" rx="4.71"/><rect id="Rectangle_36" data-name="Rectangle 36" class="cls-3" x="153.67" y="171.24" width="56.53" height="9.42" rx="4.71"/><rect id="Rectangle_37" data-name="Rectangle 37" class="cls-3" x="153.67" y="201.07" width="56.53" height="9.42" rx="4.71"/><rect id="Rectangle_38" data-name="Rectangle 38" class="cls-3" x="153.67" y="230.91" width="56.53" height="9.42" rx="4.71"/><rect id="Rectangle_39" data-name="Rectangle 39" class="cls-3" x="153.67" y="260.75" width="56.53" height="9.42" rx="4.71"/><rect id="Rectangle_40" data-name="Rectangle 40" class="cls-5" x="456.74" y="144.54" width="29.31" height="9.42" rx="4.71"/><rect id="Rectangle_41" data-name="Rectangle 41" class="cls-2" x="456.74" y="174.38" width="29.31" height="9.42" rx="4.71"/><rect id="Rectangle_42" data-name="Rectangle 42" class="cls-2" x="456.74" y="204.21" width="29.31" height="9.42" rx="4.71"/><rect id="Rectangle_43" data-name="Rectangle 43" class="cls-2" x="456.74" y="234.05" width="29.31" height="9.42" rx="4.71"/><rect id="Rectangle_44" data-name="Rectangle 44" class="cls-2" x="456.74" y="263.89" width="29.31" height="9.42" rx="4.71"/><rect id="Rectangle_45" data-name="Rectangle 45" class="cls-3" x="459.35" y="141.4" width="29.31" height="9.42" rx="4.71"/><rect id="Rectangle_46" data-name="Rectangle 46" class="cls-3" x="459.35" y="171.24" width="29.31" height="9.42" rx="4.71"/><rect id="Rectangle_47" data-name="Rectangle 47" class="cls-3" x="459.35" y="201.07" width="29.31" height="9.42" rx="4.71"/><rect id="Rectangle_48" data-name="Rectangle 48" class="cls-3" x="459.35" y="230.91" width="29.31" height="9.42" rx="4.71"/><rect id="Rectangle_49" data-name="Rectangle 49" class="cls-3" x="459.35" y="260.75" width="29.31" height="9.42" rx="4.71"/><rect id="Rectangle_50" data-name="Rectangle 50" class="cls-6" x="93.83" y="193.38" width="28.76" height="37.73"/><path id="Path_180" data-name="Path 180" class="cls-7" d="M678.64,670.12s8,0,10.46,2.61,1.49,8.78,4.1,9.72,8.59,8.4,3.37,9.33a132.19,132.19,0,0,1-15,1.06,7.8,7.8,0,0,1-4.94-1.6,29.84,29.84,0,0,0-3-2.07c-2.8-1.68,0-12.89,0-12.89Z" transform="translate(-607.5 -314.89)"/><path id="Path_181" data-name="Path 181" class="cls-8" d="M678.64,670.12s8,0,10.46,2.61,1.49,8.78,4.1,9.72,8.59,8.4,3.37,9.33a132.19,132.19,0,0,1-15,1.06,7.8,7.8,0,0,1-4.94-1.6,29.84,29.84,0,0,0-3-2.07c-2.8-1.68,0-12.89,0-12.89Z" transform="translate(-607.5 -314.89)"/><path id="Path_182" data-name="Path 182" class="cls-9" d="M709.64,597.27c0,2.06-1.68,12-1.68,12l-17.37,66.49s-12.7-3.17-13.82-3c-.23,0-.17-1.05.08-2.8.54-3.68,1.88-10.29,3-15.6.88-4.28,1.61-7.72,1.61-8.12s.4-8.17.89-17.11c.69-12.87,1.54-28.29,1.54-28.29l-2.8-40.72.75-16.06,4.49-19.24,29.69,8,1.41,9.47.09.61s-2.8,43.33-4.3,44.63A21.86,21.86,0,0,0,709.64,597.27Z" transform="translate(-607.5 -314.89)"/><path id="Path_183" data-name="Path 183" class="cls-7" d="M673.41,661.34s-11.21-.19-12.33,1.12c-.76.9-5,9.79-7.63,15.35a10.25,10.25,0,0,0,3.62,13,10.52,10.52,0,0,0,6.81,1.54c10.08-.94,9.52-7.29,9.52-7.29l3-9.71-.75-12.7Z" transform="translate(-607.5 -314.89)"/><path id="Path_184" data-name="Path 184" class="cls-8" d="M676.86,669.92c.53-3.68,1.88-10.28,3-15.59-.43,6.3-2,16.11-2.5,15.79a2.86,2.86,0,0,0-.48-.2Z" transform="translate(-607.5 -314.89)"/><path id="Path_185" data-name="Path 185" class="cls-8" d="M690.78,587.57c.19,1.12-1.87,4.49-3.18,8.59S682.75,626,682.75,626s-.17,1.19-.42,3.06c.69-12.86,1.54-28.28,1.54-28.28l-2.8-40.72.74-16.06,4.49-19.24,29.7,8,1.41,9.47-28.68-11s-.56,10.08-.56,12.14S690.59,586.45,690.78,587.57Z" transform="translate(-607.5 -314.89)"/><path id="Path_186" data-name="Path 186" class="cls-9" d="M659.21,505s-9,12-6.35,25,6,46,8.41,49.13,0,9.15,0,9.15-4.3,56.41-3.92,58.27,1.12,10.65,2,12.14.37,6.35.37,6.35,15.32,4.67,15.88,5,2.61-12.89,2.61-18.49,2.81-25.6,2.81-25.6,3.54-25.77,4.85-29.88,3.37-7.47,3.18-8.59-2.62-42-2.62-44.08.56-12.14.56-12.14L717.41,543s6.75-31.5,3.32-34.63S659.21,505,659.21,505Z" transform="translate(-607.5 -314.89)"/><ellipse id="Ellipse_46" data-name="Ellipse 46" class="cls-6" cx="77.21" cy="73.56" rx="23.16" ry="9.06"/><path id="Path_187" data-name="Path 187" class="cls-9" d="M671.33,359.92a19.1,19.1,0,0,0-5.91,9.19,4.45,4.45,0,0,0,.35,4.1,5.55,5.55,0,0,1,.9,1.1,3.86,3.86,0,0,1,0,1.82,7.14,7.14,0,0,0,.9,3.29l3.07,6.77c.34-.59.34-1.31.69-1.9.68-1.13,2.31-1.3,3.69-1.33l4.31-.1a8,8,0,0,0,3.39-.59,14.64,14.64,0,0,0,3-2.82,7.85,7.85,0,0,1,4.73-2.07,11.1,11.1,0,0,1-2.22,2.47,9.73,9.73,0,0,0,6.28-3.2v2c.72.27,1.33-.79,2.09-.71s.74,1.37.7,2.23a3.09,3.09,0,0,0,3,3.05A38.6,38.6,0,0,0,701.8,371a13.56,13.56,0,0,0-5.95-10.52,15.11,15.11,0,0,0-4.81-1.79,48.94,48.94,0,0,0-10.61-.62,24.65,24.65,0,0,0-6.06.6,7.88,7.88,0,0,0-4.83,3.29" transform="translate(-607.5 -314.89)"/><path id="Path_188" data-name="Path 188" class="cls-10" d="M674.71,385.84s-.93,7.66-2.24,7.66S678.08,406,678.08,406l18.68,1.5,11.21-7.1-5.42-9.15s-8.78-1.5-7.66-6.54S674.71,385.84,674.71,385.84Z" transform="translate(-607.5 -314.89)"/><path id="Path_189" data-name="Path 189" class="cls-8" d="M674.71,385.84s-.93,7.66-2.24,7.66S678.08,406,678.08,406l18.68,1.5,11.21-7.1-5.42-9.15s-8.78-1.5-7.66-6.54S674.71,385.84,674.71,385.84Z" transform="translate(-607.5 -314.89)"/><circle id="Ellipse_47" data-name="Ellipse 47" class="cls-10" cx="77.3" cy="62.36" r="16.25"/><path id="Path_190" data-name="Path 190" class="cls-7" d="M686.3,402.28a15.15,15.15,0,0,0,14.75-12s11,2.25,12,7.47,14.56,106.84,10.08,111.32-50.06,0-60.14,0a52,52,0,0,0-15.88,2.06l13.64-63.69L662.2,404l2.62-11.58s7.7-2.32,8.61-.23S677,404.33,686.3,402.28Z" transform="translate(-607.5 -314.89)"/><path id="Path_191" data-name="Path 191" class="cls-6" d="M673.94,390.31a10.77,10.77,0,0,0-8,0c-3.36,1.87-13.07,1.13-14.38,3.18s-12.7,13.63-12.33,15.13,9.16,33.06,10.84,34.18-2.25,66.86-7.29,74.71-6,31.19-3.55,34.55.38-2,5.42-4.11,9.9-14.38,9.9-14.38,3.18-35.86,5.23-43.7,19.61-35.68,18.31-53.43-10.65-35.49-8.59-37.92S675.6,393.12,673.94,390.31Z" transform="translate(-607.5 -314.89)"/><path id="Path_192" data-name="Path 192" class="cls-6" d="M698.16,389.86s7.56-3.65,12.23.46,23.16,10.65,23,14.76-13.26,35.11-13.26,35.11.56,25.59,3.18,32.88S742.7,540.68,736.54,545a50.2,50.2,0,0,1-18.68,7.47c-5,.93.37-9.9.93-15.32s7.48-24.84-1.86-36.42-26.15-46.7-25-65.93,3.17-25.22,3.17-25.22S701.14,391.16,698.16,389.86Z" transform="translate(-607.5 -314.89)"/><path id="Path_193" data-name="Path 193" class="cls-6" d="M643,407.51h-3.29s-2.87,12.89-6,14.75a8.89,8.89,0,0,0-4.85,6c0,1.49-2.25,3.55-4.3,5.61s-6.35,6.74-5.79,9.53-.37,18.49,4.49,18.49,14.94-1.5,16.44-3.74,11.58-18.3,11.58-18.3Z" transform="translate(-607.5 -314.89)"/><path id="Path_194" data-name="Path 194" class="cls-11" d="M683.12,672.55" transform="translate(-607.5 -314.89)"/><path id="Path_195" data-name="Path 195" class="cls-9" d="M671.52,353.19a19.31,19.31,0,0,0-5.59,9.2,4.67,4.67,0,0,0,.33,4.1,5.43,5.43,0,0,1,.86,1.1,4.14,4.14,0,0,1,0,1.82,7.4,7.4,0,0,0,.84,3.29l2.91,6.77c.32-.59.32-1.32.66-1.9.64-1.14,2.18-1.3,3.48-1.34l4.07-.1a7.08,7.08,0,0,0,3.21-.58,14.1,14.1,0,0,0,2.85-2.82,7.17,7.17,0,0,1,4.49-2.07,11.32,11.32,0,0,1-2.11,2.47,9.06,9.06,0,0,0,5.93-3.2v2c.68.27,1.26-.8,2-.71s.7,1.36.66,2.22a3,3,0,0,0,2.8,3.06,40.73,40.73,0,0,0,1.43-12.23A12.29,12.29,0,0,0,690.17,352a43.3,43.3,0,0,0-10-.62,22.55,22.55,0,0,0-5.73.59,7.43,7.43,0,0,0-4.55,3.29" transform="translate(-607.5 -314.89)"/><rect id="Rectangle_51" data-name="Rectangle 51" class="cls-4" x="40.04" y="83.69" width="56.53" height="9.42" rx="4.71"/><rect id="Rectangle_52" data-name="Rectangle 52" class="cls-12" x="41.61" y="81.07" width="56.53" height="9.42" rx="4.71"/><path id="Path_196" data-name="Path 196" class="cls-10" d="M635.68,426.56s7.66-8.78,6.54-11.59,2.42-23.53,9-21.47,3.74,22.78,3.74,22.78l-10.09,17.19-5.23-1.87Z" transform="translate(-607.5 -314.89)"/><path id="Path_197" data-name="Path 197" class="cls-6" d="M637.92,421l-14.38,17.55S616.63,457,626,457s16.61-12.14,16.61-12.14l7.66-18.49s-5.42,7.66-9.53,3.55A9.75,9.75,0,0,1,637.92,421Z" transform="translate(-607.5 -314.89)"/><rect id="Rectangle_53" data-name="Rectangle 53" class="cls-5" x="77.59" y="200.26" width="29.31" height="9.42" rx="4.71"/><rect id="Rectangle_54" data-name="Rectangle 54" class="cls-12" x="80.21" y="197.12" width="29.31" height="9.42" rx="4.71"/><path id="Path_198" data-name="Path 198" class="cls-10" d="M710.75,503.37s-13.62,19.19-5.22,23.12,19.05-13.64,19.05-13.64Z" transform="translate(-607.5 -314.89)"/><path id="Path_199" data-name="Path 199" class="cls-6" d="M725.89,402.28l7.47,2.8s4.49,22.22,6,27.46,3.55,49.68-1.49,58.64-14.76,27.09-14.76,27.09-9-13.26-15.13-12.33c0,0,8.59-7.47,9.9-11.39s5.23-15.13,5.42-21.48-.61-31.09-5.07-35.44S725.89,402.28,725.89,402.28Z" transform="translate(-607.5 -314.89)"/><line id="Line_3" data-name="Line 3" class="cls-3" y1="377.74" x2="153.24" y2="377.74"/><path id="Path_200" data-name="Path 200" class="cls-13" d="M1093.3,594.54c0,35.71,22.41,64.61,50.09,64.61" transform="translate(-607.5 -314.89)"/><path id="Path_201" data-name="Path 201" class="cls-4" d="M1143.39,659.14c0-36.11,25-65.32,55.9-65.32" transform="translate(-607.5 -314.89)"/><path id="Path_202" data-name="Path 202" class="cls-4" d="M1111.45,597.78c0,33.92,14.29,61.37,31.94,61.37" transform="translate(-607.5 -314.89)"/><path id="Path_203" data-name="Path 203" class="cls-13" d="M1143.39,659.15c0-46.15,28.9-83.48,64.61-83.48" transform="translate(-607.5 -314.89)"/><path id="Path_204" data-name="Path 204" class="cls-14" d="M1132.85,659.6s7.11-.23,9.25-1.75,10.92-3.34,11.45-.89,10.67,12.16,2.65,12.22-18.63-1.25-20.77-2.55S1132.85,659.6,1132.85,659.6Z" transform="translate(-607.5 -314.89)"/><path id="Path_205" data-name="Path 205" class="cls-15" d="M1156.35,668.33c-8,.06-18.63-1.25-20.77-2.55-1.63-1-2.28-4.55-2.49-6.19h-.24s.45,5.73,2.59,7,12.75,2.62,20.77,2.55c2.31,0,3.11-.84,3.07-2.06C1159,667.86,1158.09,668.32,1156.35,668.33Z" transform="translate(-607.5 -314.89)"/><line id="Line_4" data-name="Line 4" class="cls-3" x1="485.44" y1="354.42" x2="592.04" y2="354.42"/></svg>