<svg id="Layer_1" data-name="Layer 1" xmlns="http://www.w3.org/2000/svg" xmlns:xlink="http://www.w3.org/1999/xlink" viewBox="0 0 690 488.02"><defs><style>.cls-1,.cls-10,.cls-3{fill:#303f9f;}.cls-1,.cls-18,.cls-6{opacity:0.1;}.cls-1,.cls-10,.cls-4,.cls-6{isolation:isolate;}.cls-2{fill:none;stroke:#535461;stroke-miterlimit:10;stroke-width:5.52px;}.cls-4{opacity:0.25;}.cls-5{fill:#c8cad7;}.cls-7{fill:#474157;}.cls-8{fill:#ededf4;}.cls-9{fill:#fff;}.cls-10{opacity:0.2;}.cls-11{fill:#d4dfec;}.cls-12{fill:url(#linear-gradient);}.cls-13{fill:#a1616a;}.cls-14{fill:#fa595f;}.cls-15{fill:#605d82;}.cls-16{fill:#5a5773;}.cls-17{fill:#4a4347;}</style><linearGradient id="linear-gradient" x1="10.18" y1="1076.68" x2="10.18" y2="1079.44" gradientTransform="matrix(42.17, 0, 0, -92.14, 667.61, 99915.13)" gradientUnits="userSpaceOnUse"><stop offset="0" stop-color="gray" stop-opacity="0.25"/><stop offset="0.54" stop-color="gray" stop-opacity="0.12"/><stop offset="1" stop-color="gray" stop-opacity="0.1"/></linearGradient></defs><title>web-designing</title><path id="Path_317" data-name="Path 317" class="cls-1" d="M1315.65,355.1a141.23,141.23,0,0,0-27.37-36.87l-379.72-3.17,312.63-37.12a206,206,0,0,0-63.43-10.63,197,197,0,0,0-111-32.9,199.43,199.43,0,0,0-101.41,26.82,203.44,203.44,0,0,0-81.27-16.56c-84.37,0-154.67,49.41-170.45,114.91Z" transform="translate(-639 -234.4)"/><path id="Path_318" data-name="Path 318" class="cls-1" d="M1329,410a120.38,120.38,0,0,0-11.83-51.85l-658.1,58.42a128,128,0,0,0-15.42,32.91l203.79,25.69L639,493.92c6.27,74.15,81.48,132.72,173.34,132.72,46.24,0,88.26-14.84,119.4-39,31.23,24.66,73.63,39.81,120.39,39.81,69.35,0,129.21-33.4,157.09-81.66,55.92-15,99.36-52.68,114.22-99.81l-257.72-33.78H1329Z" transform="translate(-639 -234.4)"/><path id="Path_319" data-name="Path 319" class="cls-2" d="M812.06,572.12S783.84,531.4,788.63,493a75,75,0,0,0-9-46.61,125.91,125.91,0,0,0-13.27-18.9" transform="translate(-639 -234.4)"/><path id="Path_320" data-name="Path 320" class="cls-3" d="M769.19,403.22c1.84,5.52-2.87,24.88-2.87,24.88S751,415.38,749.17,409.85a10.55,10.55,0,0,1,20-6.63Z" transform="translate(-639 -234.4)"/><path id="Path_321" data-name="Path 321" class="cls-3" d="M795.89,428.38C794.43,434,780,447.7,780,447.7s-6-19-4.48-24.64a10.55,10.55,0,1,1,20.5,5Z" transform="translate(-639 -234.4)"/><path id="Path_322" data-name="Path 322" class="cls-3" d="M812.49,481c-4.12,4.14-23.51,8.63-23.51,8.63s4.46-19.4,8.55-23.53A10.55,10.55,0,0,1,812.47,481h0Z" transform="translate(-639 -234.4)"/><path id="Path_323" data-name="Path 323" class="cls-3" d="M816.08,523.61c-3.36,4.76-21.71,12.48-21.71,12.48s1.1-19.87,4.47-24.64a10.55,10.55,0,0,1,17.51,11.77l-.27.38Z" transform="translate(-639 -234.4)"/><path id="Path_324" data-name="Path 324" class="cls-3" d="M759.29,455.73c5.25,2.53,25,.41,25,.41s-10.6-16.85-15.88-19.4a10.54,10.54,0,0,0-9.16,19Z" transform="translate(-639 -234.4)"/><path id="Path_325" data-name="Path 325" class="cls-3" d="M764.12,505.51c5.76.86,24-7.1,24-7.1S773,485.5,767.22,484.64a10.55,10.55,0,0,0-3.1,20.87Z" transform="translate(-639 -234.4)"/><path id="Path_326" data-name="Path 326" class="cls-3" d="M775.46,553.25c5.54,1.83,24.88-2.93,24.88-2.93s-12.76-15.27-18.32-17.1a10.55,10.55,0,1,0-6.58,20Z" transform="translate(-639 -234.4)"/><path id="Path_327" data-name="Path 327" class="cls-4" d="M769.19,403.22c1.84,5.52-2.87,24.88-2.87,24.88S751,415.38,749.17,409.85a10.55,10.55,0,0,1,20-6.63Z" transform="translate(-639 -234.4)"/><path id="Path_328" data-name="Path 328" class="cls-4" d="M795.89,428.38C794.43,434,780,447.7,780,447.7s-6-19-4.48-24.64a10.55,10.55,0,1,1,20.5,5Z" transform="translate(-639 -234.4)"/><path id="Path_329" data-name="Path 329" class="cls-4" d="M812.49,481c-4.12,4.14-23.51,8.63-23.51,8.63s4.46-19.4,8.55-23.53A10.55,10.55,0,0,1,812.47,481h0Z" transform="translate(-639 -234.4)"/><path id="Path_330" data-name="Path 330" class="cls-4" d="M816.08,523.61c-3.36,4.76-21.71,12.48-21.71,12.48s1.1-19.87,4.47-24.64a10.55,10.55,0,0,1,17.51,11.77l-.27.38Z" transform="translate(-639 -234.4)"/><path id="Path_331" data-name="Path 331" class="cls-4" d="M759.29,455.73c5.25,2.53,25,.41,25,.41s-10.6-16.85-15.88-19.4a10.54,10.54,0,0,0-9.16,19Z" transform="translate(-639 -234.4)"/><path id="Path_332" data-name="Path 332" class="cls-4" d="M764.12,505.51c5.76.86,24-7.1,24-7.1S773,485.5,767.22,484.64a10.55,10.55,0,0,0-3.1,20.87Z" transform="translate(-639 -234.4)"/><path id="Path_333" data-name="Path 333" class="cls-4" d="M775.46,553.25c5.54,1.83,24.88-2.93,24.88-2.93s-12.76-15.27-18.32-17.1a10.55,10.55,0,1,0-6.58,20Z" transform="translate(-639 -234.4)"/><path id="Path_334" data-name="Path 334" class="cls-2" d="M811.9,570.49s-42.3-25.8-53.5-62.9a75.07,75.07,0,0,0-27.15-38.95,126,126,0,0,0-19.79-11.89" transform="translate(-639 -234.4)"/><path id="Path_335" data-name="Path 335" class="cls-3" d="M704.27,433.45c3.91,4.31,7.45,23.9,7.45,23.9s-19.15-5.42-23.07-9.73a10.55,10.55,0,0,1,15.46-14.35l.16.18Z" transform="translate(-639 -234.4)"/><path id="Path_336" data-name="Path 336" class="cls-3" d="M738.86,445.63c.94,5.75-6.72,24.12-6.72,24.12S719,454.78,718,449a10.55,10.55,0,0,1,20.82-3.41Z" transform="translate(-639 -234.4)"/><path id="Path_337" data-name="Path 337" class="cls-3" d="M775.35,487c-2.1,5.44-18,17.42-18,17.42s-3.79-19.54-1.7-25a10.55,10.55,0,1,1,19.79,7.31l-.09.25Z" transform="translate(-639 -234.4)"/><path id="Path_338" data-name="Path 338" class="cls-3" d="M795.93,524.47c-1.14,5.71-14.8,20.21-14.8,20.21s-7-18.63-5.89-24.34a10.55,10.55,0,1,1,20.7,4.14h0Z" transform="translate(-639 -234.4)"/><path id="Path_339" data-name="Path 339" class="cls-3" d="M716.48,485.46c5.82.21,23.06-9.77,23.06-9.77S723,464.58,717.18,464.38a10.55,10.55,0,0,0-.72,21.08Z" transform="translate(-639 -234.4)"/><path id="Path_340" data-name="Path 340" class="cls-3" d="M741.08,529c5.61-1.55,19.08-16.22,19.08-16.22s-19.09-5.68-24.68-4.11a10.55,10.55,0,1,0,5.28,20.42l.33-.09Z" transform="translate(-639 -234.4)"/><path id="Path_341" data-name="Path 341" class="cls-3" d="M770.8,568.06c5.79-.61,21.55-12.76,21.55-12.76s-17.86-8.81-23.65-8.23a10.55,10.55,0,0,0,1.42,21l.68-.07Z" transform="translate(-639 -234.4)"/><ellipse id="Ellipse_65" data-name="Ellipse 65" class="cls-1" cx="345.43" cy="448.26" rx="109.3" ry="6.49"/><ellipse id="Ellipse_66" data-name="Ellipse 66" class="cls-1" cx="456.05" cy="477.06" rx="28.61" ry="5.21"/><path id="Path_342" data-name="Path 342" class="cls-5" d="M1034.68,671.25v3.9H918.89V672a38.06,38.06,0,0,0,2.62-70.3h112.41a38.08,38.08,0,0,0,.76,69.57Z" transform="translate(-639 -234.4)"/><path id="Path_343" data-name="Path 343" class="cls-6" d="M1033.93,601.69a38.12,38.12,0,0,0-21,25.24H942.56a38.12,38.12,0,0,0-21-25.24Z" transform="translate(-639 -234.4)"/><path id="Path_344" data-name="Path 344" class="cls-5" d="M786.29,581.74v22c0,12.15,8.88,22,19.84,22h340.73c11,0,19.84-9.85,19.84-22v-22Z" transform="translate(-639 -234.4)"/><path id="Path_345" data-name="Path 345" class="cls-6" d="M1034.68,671.25v3.93H918.89V672a38.09,38.09,0,0,0,8.93-4.75h99.77a37.85,37.85,0,0,0,7.09,4Z" transform="translate(-639 -234.4)"/><path id="Rectangle_90" data-name="Rectangle 90" class="cls-5" d="M886.43,668.45h180.74a5.8,5.8,0,0,1,5.8,5.8h0a5.8,5.8,0,0,1-5.8,5.8H886.43a5.8,5.8,0,0,1-5.8-5.8h0A5.79,5.79,0,0,1,886.43,668.45Z" transform="translate(-639 -234.4)"/><path id="Path_346" data-name="Path 346" class="cls-7" d="M1166.7,340.85A19.85,19.85,0,0,0,1146.86,321H806.13a19.85,19.85,0,0,0-19.84,19.85h0V586H1166.7Z" transform="translate(-639 -234.4)"/><rect id="Rectangle_91" data-name="Rectangle 91" class="cls-8" x="157.67" y="105.54" width="359.66" height="230.2" rx="44.16"/><circle id="Ellipse_67" data-name="Ellipse 67" class="cls-9" cx="337.5" cy="96.07" r="4.58"/><circle id="Ellipse_68" data-name="Ellipse 68" class="cls-9" cx="337.5" cy="370.24" r="11.3"/><path id="Path_347" data-name="Path 347" class="cls-5" d="M1156.32,349.71H796.67a9.76,9.76,0,0,1,9.77-9.77h340.11A9.76,9.76,0,0,1,1156.32,349.71Z" transform="translate(-639 -234.4)"/><circle id="Ellipse_69" data-name="Ellipse 69" class="cls-8" cx="167.44" cy="110.42" r="2.44"/><circle id="Ellipse_70" data-name="Ellipse 70" class="cls-8" cx="174.77" cy="110.42" r="2.44"/><circle id="Ellipse_71" data-name="Ellipse 71" class="cls-8" cx="182.09" cy="110.42" r="2.44"/><rect id="Rectangle_92" data-name="Rectangle 92" class="cls-3" x="171.1" y="123.55" width="92.2" height="5.5"/><rect id="Rectangle_93" data-name="Rectangle 93" class="cls-3" x="171.1" y="284.14" width="92.2" height="5.5"/><rect id="Rectangle_94" data-name="Rectangle 94" class="cls-10" x="171.1" y="296.36" width="170.97" height="5.5"/><rect id="Rectangle_95" data-name="Rectangle 95" class="cls-10" x="171.1" y="304.3" width="170.97" height="5.5"/><rect id="Rectangle_96" data-name="Rectangle 96" class="cls-10" x="171.1" y="312.24" width="170.97" height="5.5"/><rect id="Rectangle_97" data-name="Rectangle 97" class="cls-10" x="171.1" y="138.21" width="169.75" height="92.2"/><rect id="Rectangle_98" data-name="Rectangle 98" class="cls-10" x="172.93" y="238.96" width="39.69" height="36.64"/><rect id="Rectangle_99" data-name="Rectangle 99" class="cls-10" x="301.16" y="238.96" width="39.69" height="36.64"/><rect id="Rectangle_100" data-name="Rectangle 100" class="cls-10" x="236.13" y="238.96" width="39.69" height="36.64"/><rect id="Rectangle_101" data-name="Rectangle 101" class="cls-10" x="377.09" y="165.02" width="116.83" height="85.99"/><rect id="Rectangle_102" data-name="Rectangle 102" class="cls-8" x="389.4" y="182.48" width="92.2" height="5.5"/><rect id="Rectangle_103" data-name="Rectangle 103" class="cls-8" x="389.4" y="193.87" width="92.2" height="5.5"/><rect id="Rectangle_104" data-name="Rectangle 104" class="cls-8" x="389.4" y="205.28" width="92.2" height="5.5"/><rect id="Rectangle_105" data-name="Rectangle 105" class="cls-8" x="389.4" y="216.67" width="92.2" height="5.5"/><rect id="Rectangle_106" data-name="Rectangle 106" class="cls-8" x="389.4" y="228.07" width="92.2" height="5.5"/><rect id="Rectangle_107" data-name="Rectangle 107" class="cls-3" x="391.33" y="260.79" width="88.34" height="15.47"/><rect id="Rectangle_108" data-name="Rectangle 108" class="cls-3" x="386.61" y="312.32" width="59.24" height="10.37"/><ellipse id="Ellipse_72" data-name="Ellipse 72" class="cls-1" cx="157.8" cy="473.47" rx="17.46" ry="1.77"/><ellipse id="Ellipse_73" data-name="Ellipse 73" class="cls-1" cx="515.28" cy="448.14" rx="10.47" ry="1.06"/><path id="Path_348" data-name="Path 348" class="cls-3" d="M802.9,678.69s-22.77,11.77-11,25.65a4.35,4.35,0,0,0,4.31,2.79s-.64-1.16,1.84-2.09a12,12,0,0,0,2.44-1.31,5.8,5.8,0,0,0,2.21-2.94h0s4.66-6.23,1-17.77c0,0,.46-3.26,0-3.78L801,683a7.72,7.72,0,0,1,3.19,4.74s-3-4.74-3.63-4.2c-.13.11-1.38,2.08-1.38,2.08s5,3.36,5.33,7.72c0,0-2.8-6.1-5.81-7L797,689.41a13.43,13.43,0,0,1,6,8.25s-3.15-6.29-6.35-7.56l-1.27,3.26s5.22,3.31,5.7,7.45c0,0-4.37-6.9-5.94-6.72a16.6,16.6,0,0,0-.86,4s3.7,2.44,3.76,4.88c0,0-3.4-4.3-3.93-4a18.06,18.06,0,0,0,.83,6.57,13.07,13.07,0,0,1-1.51-6.57,7.17,7.17,0,0,0-2.18,3.54s-1-2.38,2.25-4.57a16.68,16.68,0,0,1,.68-3.77,15.69,15.69,0,0,0-5,3.8s.55-3.13,5.28-4.68l1.22-3.3a22.47,22.47,0,0,0-6.19,3.78s1.05-3.1,6.57-4.58l1.63-3a26.12,26.12,0,0,0-6.26,3,10.61,10.61,0,0,1,6.77-3.89l1.33-1.9s-3.05,1.11-3.91,1.49-1,.19-1,.19a11,11,0,0,1,5.49-2.48A27.08,27.08,0,0,0,802.9,678.69Z" transform="translate(-639 -234.4)"/><ellipse id="Ellipse_74" data-name="Ellipse 74" class="cls-1" cx="103.38" cy="446.49" rx="13.39" ry="1.36"/><path id="Path_349" data-name="Path 349" class="cls-3" d="M747.08,658.54s-17.45,9-8.44,19.64a3.36,3.36,0,0,0,3.31,2.15s-.49-.9,1.38-1.61a9.69,9.69,0,0,0,1.88-1,4.48,4.48,0,0,0,1.69-2.26h0s3.57-4.78.8-13.61c0,0,.36-2.51,0-2.91l-2.12,2.91a6,6,0,0,1,2.44,3.63s-2.28-3.62-2.78-3.21c-.1.08-1,1.59-1,1.59a9.78,9.78,0,0,1,4.08,5.92s-2.14-4.69-4.45-5.35l-1.3,2.36a10.25,10.25,0,0,1,4.61,6.32s-2.41-4.82-4.88-5.79l-1,2.48s4,2.55,4.37,5.71c0,0-3.35-5.29-4.56-5.12a13.82,13.82,0,0,0-.65,3.05s2.84,1.89,2.88,3.75c0,0-2.61-3.3-3-3.05a13.61,13.61,0,0,0,.64,5,10,10,0,0,1-1.16-5,5.56,5.56,0,0,0-1.68,2.69s-.75-1.83,1.73-3.5a13.08,13.08,0,0,1,.52-2.9,12.24,12.24,0,0,0-3.82,2.92s.42-2.4,4-3.59l.92-2.53a17.17,17.17,0,0,0-4.75,2.9s.8-2.38,5-3.52l1.25-2.32a20.45,20.45,0,0,0-4.8,2.32,8.17,8.17,0,0,1,5.19-3l1-1.46s-2.34.83-3,1.15-.79.14-.79.14a8.45,8.45,0,0,1,4.2-1.9A24.66,24.66,0,0,0,747.08,658.54Z" transform="translate(-639 -234.4)"/><path id="Path_350" data-name="Path 350" class="cls-3" d="M1159.09,664.9s-13.65,7.08-6.6,15.36a2.63,2.63,0,0,0,2.58,1.67s-.38-.7,1.09-1.26a6.91,6.91,0,0,0,1.47-.78,3.51,3.51,0,0,0,1.32-1.76h0a12.16,12.16,0,0,0,.61-10.65,7.2,7.2,0,0,0,0-2.27l-1.66,2.27a4.68,4.68,0,0,1,1.92,2.85s-1.79-2.84-2.18-2.52c-.08.07-.83,1.23-.83,1.23a7.62,7.62,0,0,1,3.2,4.63s-1.68-3.67-3.48-4.19l-1,1.89a8.07,8.07,0,0,1,3.61,5s-1.88-3.77-3.81-4.53l-.76,2s3.13,2,3.42,4.46c0,0-2.62-4.14-3.56-4a9.8,9.8,0,0,0-.51,2.39s2.2,1.48,2.25,2.93c0,0-2-2.57-2.36-2.4a10.69,10.69,0,0,0,.5,3.93,7.92,7.92,0,0,1-.91-3.93,4.32,4.32,0,0,0-1.3,2.1s-.61-1.43,1.35-2.73a10.29,10.29,0,0,1,.4-2.27,9.37,9.37,0,0,0-3,2.28s.32-1.88,3.16-2.81l.72-2a14.3,14.3,0,0,0-3.72,2.26s.61-1.83,4-2.76l1-1.83a16.36,16.36,0,0,0-3.76,1.83,6.42,6.42,0,0,1,4.06-2.33l.79-1.14s-1.83.66-2.33.89-.61.12-.61.12a6.57,6.57,0,0,1,3.28-1.49A16.19,16.19,0,0,0,1159.09,664.9Z" transform="translate(-639 -234.4)"/><ellipse id="Ellipse_75" data-name="Ellipse 75" class="cls-1" cx="571.57" cy="485.89" rx="25.49" ry="2.13"/><path id="Path_351" data-name="Path 351" class="cls-3" d="M1231,653.05a10.43,10.43,0,0,0-1.38,2.62c-.09.23-.17.49-.25.74a2.84,2.84,0,0,0-.49-.17,6.67,6.67,0,0,0-2.18-.18c0-.28,0-.58,0-.9.08-3.22-.3-7.71-3.37-5.8s-.84,4.89,1.06,6.84c.16.18.33.34.49.49-1.73,1.22-2.07,4.11-2.35,7.1a16.59,16.59,0,0,1-4.52,8.14l-.49.52a6.13,6.13,0,0,0-4.88-1.26l-.23-.83c-1.36-4.94-4.2-13.49-7.83-15.37.16-.19.32-.39.48-.61,1.54-2,3.27-5,.71-5.77s-2.78,2.59-2.64,5.11a5.46,5.46,0,0,0,.07.9,3.77,3.77,0,0,0-2.68,1.3l-.39-.47c-2.08-2.44-5.89-6.33-7-3.39-1.07,2.73,2.28,6.29,4.63,8.34l.16.13c-1.59,6.42,5.31,11.65,9,13.94l.48.3c-5.12,6-8.28,17.38-8.28,17.38l14.36,2.57s9.52-8.22,8.3-15.94h.1c9.51-1.9,11.68-12,10.2-18.08l.16-.07a10.68,10.68,0,0,0,4.42-3.33,3.56,3.56,0,1,0-5.7-4.25Z" transform="translate(-639 -234.4)"/><path id="Path_352" data-name="Path 352" class="cls-6" d="M1231,653.05a10.43,10.43,0,0,0-1.38,2.62c-.09.23-.17.49-.25.74a2.84,2.84,0,0,0-.49-.17,6.67,6.67,0,0,0-2.18-.18c0-.28,0-.58,0-.9.08-3.22-.3-7.71-3.37-5.8s-.84,4.89,1.06,6.84c.16.18.33.34.49.49-1.73,1.22-2.07,4.11-2.35,7.1a16.59,16.59,0,0,1-4.52,8.14l-.49.52a6.13,6.13,0,0,0-4.88-1.26l-.23-.83c-1.36-4.94-4.2-13.49-7.83-15.37.16-.19.32-.39.48-.61,1.54-2,3.27-5,.71-5.77s-2.78,2.59-2.64,5.11a5.46,5.46,0,0,0,.07.9,3.77,3.77,0,0,0-2.68,1.3l-.39-.47c-2.08-2.44-5.89-6.33-7-3.39-1.07,2.73,2.28,6.29,4.63,8.34l.16.13c-1.59,6.42,5.31,11.65,9,13.94l.48.3c-5.12,6-8.28,17.38-8.28,17.38l14.36,2.57s9.52-8.22,8.3-15.94h.1c9.51-1.9,11.68-12,10.2-18.08l.16-.07a10.68,10.68,0,0,0,4.42-3.33,3.56,3.56,0,1,0-5.7-4.25Z" transform="translate(-639 -234.4)"/><path id="Path_353" data-name="Path 353" class="cls-3" d="M1202.39,657.18l-1.68,4.88a26.26,26.26,0,0,1-2.11-1.7c-2.35-2.06-5.7-5.61-4.63-8.34,1.15-2.94,5,.94,7,3.39C1201.83,656.42,1202.39,657.18,1202.39,657.18Z" transform="translate(-639 -234.4)"/><path id="Path_354" data-name="Path 354" class="cls-3" d="M1205.94,654.37c-.52.67-1.06,1.31-1.64,1.93a22.57,22.57,0,0,1-.3-2.59c-.14-2.52.12-5.86,2.65-5.11S1207.49,652.35,1205.94,654.37Z" transform="translate(-639 -234.4)"/><path id="Path_355" data-name="Path 355" class="cls-3" d="M1227.59,655.14c0,1.62-.21,2.91-.21,2.91a20.65,20.65,0,0,1-2.09-1.87c-1.9-2-4-5-1.06-6.84S1227.67,651.92,1227.59,655.14Z" transform="translate(-639 -234.4)"/><path id="Path_356" data-name="Path 356" class="cls-3" d="M1237.51,657.26a10.68,10.68,0,0,1-4.42,3.33,12.94,12.94,0,0,1-1.47.54l-2-2.78a18.59,18.59,0,0,1,.81-2.7,10.6,10.6,0,0,1,1.38-2.62,3.54,3.54,0,0,1,5.68,4.23Z" transform="translate(-639 -234.4)"/><path id="Path_357" data-name="Path 357" class="cls-6" d="M1201,655.44c.83,1,1.38,1.74,1.38,1.74l-1.68,4.88s-.93-.66-2.11-1.7a9.79,9.79,0,0,1,1.89-4.31C1200.65,655.84,1200.82,655.64,1201,655.44Z" transform="translate(-639 -234.4)"/><path id="Path_358" data-name="Path 358" class="cls-6" d="M1205.93,654.37a24.83,24.83,0,0,1-1.63,1.93,22.57,22.57,0,0,1-.3-2.59A3.28,3.28,0,0,1,1205.93,654.37Z" transform="translate(-639 -234.4)"/><path id="Path_359" data-name="Path 359" class="cls-3" d="M1214.2,673.88l-4.17,1.83a23.19,23.19,0,0,1-2.23-1.25c-4.39-2.7-13.21-9.5-7.33-17.51s10.85,6.35,12.83,13.38C1213.87,672.44,1214.2,673.88,1214.2,673.88Z" transform="translate(-639 -234.4)"/><path id="Path_360" data-name="Path 360" class="cls-6" d="M1225.29,656.18a3.42,3.42,0,0,1,2.3-1c0,1.62-.21,2.91-.21,2.91A19.51,19.51,0,0,1,1225.29,656.18Z" transform="translate(-639 -234.4)"/><path id="Path_361" data-name="Path 361" class="cls-6" d="M1233.13,660.59a12.43,12.43,0,0,1-1.48.54l-2-2.78a18.59,18.59,0,0,1,.81-2.7A7.34,7.34,0,0,1,1233.13,660.59Z" transform="translate(-639 -234.4)"/><path id="Path_362" data-name="Path 362" class="cls-3" d="M1222.75,678.74c-.23,0-.47.09-.71.12-14,2.13-4.61-5.42-4.61-5.42s.61-.58,1.49-1.53a16.51,16.51,0,0,0,4.52-8.14c.43-4.54.94-8.79,6.3-7.55S1236,676.09,1222.75,678.74Z" transform="translate(-639 -234.4)"/><rect id="Rectangle_109" data-name="Rectangle 109" class="cls-11" x="556.73" y="479.21" width="26.75" height="7.04"/><rect id="Rectangle_110" data-name="Rectangle 110" class="cls-11" x="552.47" y="456.35" width="34.95" height="24.55"/><rect id="Rectangle_111" data-name="Rectangle 111" class="cls-6" x="556.73" y="479.21" width="26.75" height="7.04"/><rect id="Rectangle_112" data-name="Rectangle 112" class="cls-6" x="552.47" y="456.35" width="34.95" height="24.55"/><rect id="Rectangle_113" data-name="Rectangle 113" class="cls-11" x="558.49" y="479.21" width="26.75" height="7.04"/><path id="Path_363" data-name="Path 363" class="cls-6" d="M1213.28,670.34c.61,2.1.91,3.54.91,3.54l-4.17,1.83a23.19,23.19,0,0,1-2.23-1.25A10.7,10.7,0,0,1,1213.28,670.34Z" transform="translate(-639 -234.4)"/><path id="Path_364" data-name="Path 364" class="cls-6" d="M1222.75,678.74c-.23,0-.47.09-.71.12-14,2.13-4.61-5.42-4.61-5.42s.61-.58,1.49-1.53A9.3,9.3,0,0,1,1222.75,678.74Z" transform="translate(-639 -234.4)"/><path id="Path_365" data-name="Path 365" class="cls-3" d="M1200,692.13s7.84-28.09,18.83-19.43-4.47,22-4.47,22Z" transform="translate(-639 -234.4)"/><circle id="Ellipse_76" data-name="Ellipse 76" class="cls-6" cx="564.93" cy="426.96" r="0.88"/><circle id="Ellipse_77" data-name="Ellipse 77" class="cls-6" cx="564.86" cy="431.07" r="0.88"/><circle id="Ellipse_78" data-name="Ellipse 78" class="cls-6" cx="590.36" cy="427.77" r="0.88"/><circle id="Ellipse_79" data-name="Ellipse 79" class="cls-6" cx="569.84" cy="448.8" r="0.88"/><circle id="Ellipse_80" data-name="Ellipse 80" class="cls-6" cx="588.53" cy="434.58" r="0.88"/><circle id="Ellipse_81" data-name="Ellipse 81" class="cls-6" cx="579.44" cy="443.67" r="0.88"/><circle id="Ellipse_82" data-name="Ellipse 82" class="cls-6" cx="567.94" cy="428.72" r="0.88"/><circle id="Ellipse_83" data-name="Ellipse 83" class="cls-6" cx="587.94" cy="430.41" r="0.88"/><circle id="Ellipse_84" data-name="Ellipse 84" class="cls-6" cx="584.94" cy="437.22" r="0.88"/><circle id="Ellipse_85" data-name="Ellipse 85" class="cls-6" cx="575.71" cy="448.14" r="0.88"/><circle id="Ellipse_86" data-name="Ellipse 86" class="cls-6" cx="573.8" cy="443.81" r="0.88"/><circle id="Ellipse_87" data-name="Ellipse 87" class="cls-6" cx="569.26" cy="434.07" r="0.88"/><rect id="Rectangle_114" data-name="Rectangle 114" class="cls-6" x="558.49" y="479.21" width="26.75" height="2.57"/><rect id="Rectangle_115" data-name="Rectangle 115" class="cls-11" x="554.24" y="456.35" width="34.95" height="24.55"/><circle id="Ellipse_88" data-name="Ellipse 88" class="cls-6" cx="576.88" cy="452.09" r="0.88"/><circle id="Ellipse_89" data-name="Ellipse 89" class="cls-6" cx="571.6" cy="453.19" r="0.88"/><path id="Path_366" data-name="Path 366" class="cls-12" d="M1150.26,584.74a4.31,4.31,0,0,1-1.15-3c0-.28,0-.57,0-.83a3.12,3.12,0,0,0,.85-.77c1.44-2.05-2-9.5-2-9.5a11.87,11.87,0,0,0,0-7.22,16,16,0,0,0-2-4s-4.52-9.28-3.85-10.38-1.1-9.77-2.44-11.51c-.56-.75-1.15-1.47-1.78-2.16a12.57,12.57,0,0,0-1.68-6.72,56.91,56.91,0,0,1-4-11.11,67.67,67.67,0,0,0-4-10.38,11.67,11.67,0,0,0-2.45-2.51c.28-1.22.87-2.84-.86-12.42-.71-3.93.39-6.28,1.3-10.17a12.3,12.3,0,0,0-2.07-11.31c-2.79-2.94-7.12-3.49-10.58-5.5-3.06-1.76-5.78-4.75-9.34-4.69a9.69,9.69,0,0,0-5,1.43c-4.17,1.7-8.86,1.19-13.1,2.59-3.81,1.27-8.65,5.42-7.5,9.82A4.86,4.86,0,0,0,1080,477a3.13,3.13,0,0,0,3,.53.41.41,0,0,1,0,.22,11.2,11.2,0,0,0-.15,1.83,12.06,12.06,0,0,0,12.17,11.87c0,.14.07.27.1.43.1.39.18.78.28,1.18l-1,1.27a12.25,12.25,0,0,0-1.83,3.25c-3.53.72-9.45,1.89-10.38,3.42-1.22,2.05-6.24,12.21-5.69,16.83,0,.26.06.61.08,1A58.77,58.77,0,0,0,1073,526c-.45,1.73-1.45,8.2-3.35,9.71s-5.79,6.37-5.24,7.33-5.24,2.16-5.24,2.16-3.9,1.5-3.67,2.69c.07.37-.2.71-.61,1-4.43-1.46-10.08-2.45-14.46-.22-6.1,3.09,4.61,5.22,11,6.16,1,.16,2,.27,2.7.36.05.21.25.4.76.57l1.7.61.26-.79c2.12.75,7.9,3.09,7.9,3.09s5,.82,6.47-2.1a25.84,25.84,0,0,1,4.09-4.88l-.2.65-4.23,13.94s-6.69,10.38-6.35,12.62a19.78,19.78,0,0,1-2.67,8.56c-.55.55-6.11,16.94-9,18s-6.81,4.85-5.5,6,6.72,5.07,9.16,3.78,6.72,1.08,6.72,1.08a16.23,16.23,0,0,1,8.49,1.06c0,.42.09.88.14,1.36a52.67,52.67,0,0,0,1.73,10.2c1.11,2.38,2.12,6.58,1.22,8.2s.79,32.48,2.45,37.77a49.19,49.19,0,0,1,2.79,15.15c-.18,2.64-.3,5.28-.31,7.93v.44c0,.15-.11.23-.16.36v.23a23.46,23.46,0,0,0-1,2.82s-2.87,7.23-1.9,9.11a1.66,1.66,0,0,0,.46.53,13.16,13.16,0,0,0,6.1,1.4l0,1.83h1.65s0-1.83.15-4.11a11.28,11.28,0,0,0,.71-4,16.47,16.47,0,0,1,1.47-6.95s0-.19.07-.49h0a12,12,0,0,0,.11-1.9,6.78,6.78,0,0,0-.61-3.23,7.24,7.24,0,0,1,.12-2,105.69,105.69,0,0,0-.67-13l1.89-20.82s1.11-16.08.67-20.29a13.65,13.65,0,0,1,.08-3.38,108.16,108.16,0,0,0,1.22-13.8v-1.3a28.52,28.52,0,0,0,10.93.25s1.6,0,3.73,0c0,.44.11.88.17,1.3a24.83,24.83,0,0,0,1.11,5.13c1.1,2.38,2.12,6.59,1.22,8.2s.77,32.48,2.44,37.77a49,49,0,0,1,2.8,15.15c-.18,2.64-.3,5.28-.31,7.94v.49a3.73,3.73,0,0,0-.16.35c0,.12,0,.17,0,.24a23.26,23.26,0,0,0-.93,2.82s-2.88,7.24-1.9,9.13a1.63,1.63,0,0,0,.46.52,13.16,13.16,0,0,0,6.1,1.4l0,1.83h1.65s0-1.83.15-4.11a11.07,11.07,0,0,0,.71-4,16.74,16.74,0,0,1,1.44-6.94,12,12,0,0,0,.18-2.39,6.76,6.76,0,0,0-.64-3.25,8.08,8.08,0,0,1,.12-2,103.73,103.73,0,0,0-.66-13l1.89-20.82s1.1-16.08.67-20.29a13.2,13.2,0,0,1,.08-3.38,109,109,0,0,0,1.22-13.12v-1.32c.41-.49,1.23-.88,3.48-1.65,3.91-1.3,11.71-7.77,14.83-8.2s5.91-2.49,5-4.11-5.79-2.7-5.35-5.17-3-4-4.56-8.09-8.37-7.33-8.48-10.38-6.42-12.39-6.42-12.39a77.45,77.45,0,0,1-7.75-17,1.86,1.86,0,0,0-.08-.41h.08a11.84,11.84,0,0,1-.23-1.47,1.92,1.92,0,0,1,0-.41h-.08V548l.13-.08.37-.21-.12,0a12.4,12.4,0,0,0,2-1.66,9.05,9.05,0,0,0,2.33-3.25,16.52,16.52,0,0,0,.91-4.27l.79-1.22c.77,3.21,1.9,7.83,2.25,8.86a89.53,89.53,0,0,1,4,13.41,45.58,45.58,0,0,0,4.88,12.63s5.69,7.45,10,7.76,1.89,1.51,2.56,1.73l.19,0,.07.87.19,2.54s4.45,18.13,9.47,15.54S1151.92,585.93,1150.26,584.74Z" transform="translate(-639 -234.4)"/><path id="Path_367" data-name="Path 367" class="cls-13" d="M1150.84,600.82c-4.82,2.57-9.1-15.43-9.1-15.43l-.19-2.52-.34-4.77,5.89.75a17.83,17.83,0,0,0,0,3.1,4.4,4.4,0,0,0,1.1,3C1149.77,586.14,1155.66,598.25,1150.84,600.82Z" transform="translate(-639 -234.4)"/><path id="Path_368" data-name="Path 368" class="cls-13" d="M1078.16,705.92l.41-.31A2.1,2.1,0,0,1,1078.16,705.92Z" transform="translate(-639 -234.4)"/><path id="Path_369" data-name="Path 369" class="cls-13" d="M1090.31,607v13.89a112.41,112.41,0,0,1-1.22,13.72A14,14,0,0,0,1089,638c.43,4.18-.61,20.14-.61,20.14l-1.83,20.68a103.7,103.7,0,0,1,.61,12.83,8,8,0,0,0-.12,2c.06,1.83.38,4.18.48,4.88v.22l-.06,0-9,6.84a10.45,10.45,0,0,0,1.79-7.14v-.91c0-2.63.1-5.25.31-7.88a50.32,50.32,0,0,0-2.69-15c-1.61-5.25-3.22-35.88-2.36-37.5s-.11-5.8-1.18-8.15a55.73,55.73,0,0,1-1.6-10.11c-.23-2.23-.37-3.91-.37-3.91Z" transform="translate(-639 -234.4)"/><path id="Path_370" data-name="Path 370" class="cls-13" d="M1109.33,703.18l.44-.33A2,2,0,0,1,1109.33,703.18Z" transform="translate(-639 -234.4)"/><path id="Path_371" data-name="Path 371" class="cls-13" d="M1121.48,604.28v14.58a111.44,111.44,0,0,1-1.18,13,14,14,0,0,0-.08,3.36c.43,4.18-.61,20.15-.61,20.15l-1.83,20.68a109.75,109.75,0,0,1,.65,12.82,7.09,7.09,0,0,0-.12,2c.06,1.84.38,4.22.48,4.89a.64.64,0,0,0,0,.2l-.06,0h0l-9,6.83a10.71,10.71,0,0,0,1.74-7.09v-.92c0-2.63.12-5.25.29-7.88a50.36,50.36,0,0,0-2.68-15c-1.61-5.24-3.22-35.88-2.36-37.5s-.11-5.79-1.18-8.14a25.43,25.43,0,0,1-1.07-5.1c-.56-4.08-1-8.93-1-8.93Z" transform="translate(-639 -234.4)"/><path id="Path_372" data-name="Path 372" class="cls-6" d="M1104.75,487.67l-.09.14a11.75,11.75,0,0,1-8.15,4.89,11.61,11.61,0,0,1-1.44.1c0-.15-.06-.3-.1-.44-.7-3.05-1.45-5.49-1.45-5.49s.8-1.16,2-2.63c3.17-4,9-10.34,8.55-1.87a14.5,14.5,0,0,0,.61,5.07A.67.67,0,0,1,1104.75,487.67Z" transform="translate(-639 -234.4)"/><path id="Path_373" data-name="Path 373" class="cls-13" d="M1106.84,480.55a11.77,11.77,0,0,1-10.33,11.69,11.92,11.92,0,0,1-1.46.09H1095a11.79,11.79,0,1,1,11.86-11.78Z" transform="translate(-639 -234.4)"/><path id="Path_374" data-name="Path 374" class="cls-13" d="M1118.28,514.89l-11.43,9.77s-12.46-17.78-11-21.43a12.28,12.28,0,0,0,.11-5.43c-.16-1.22-.4-2.57-.67-3.84-.08-.39-.16-.78-.25-1.17,0-.15-.06-.29-.1-.43-.7-3.06-1.45-5.5-1.45-5.5s.8-1.15,2-2.62c3.16-4,9-10.34,8.55-1.88a14.53,14.53,0,0,0,.61,5.08.86.86,0,0,0,.09.27,26.31,26.31,0,0,0,8.62,11.46,34.66,34.66,0,0,0,3.94,2.79Z" transform="translate(-639 -234.4)"/><path id="Path_375" data-name="Path 375" class="cls-6" d="M1072.41,615l17.9-7.93v13.89a6.5,6.5,0,0,1-1.16-.55,10.79,10.79,0,0,0-8.25-.49,9.38,9.38,0,0,1-7.61-.75l-.49-.28C1072.54,616.65,1072.41,615,1072.41,615Z" transform="translate(-639 -234.4)"/><path id="Path_376" data-name="Path 376" class="cls-6" d="M1121.48,604.28v14.58a6.57,6.57,0,0,0-.61,1.35c-.64,1.5-5,2-8.89,1.4a55.59,55.59,0,0,0-7.4-.46c-.57-4.08-1-8.94-1-8.94Z" transform="translate(-639 -234.4)"/><path id="Path_377" data-name="Path 377" class="cls-14" d="M1139.06,607.78c-3,.43-10.5,6.86-14.25,8.15s-3.31,1.49-4,3-5,2-8.9,1.4a79.71,79.71,0,0,0-11.14-.43s-8.12,1.41-11.68-.8a10.74,10.74,0,0,0-8.25-.49,9.39,9.39,0,0,1-7.61-.75,14.65,14.65,0,0,0-8.79-1.38s-4.07-2.36-6.43-1.07-7.5-2.57-8.78-3.75,2.44-4.92,5.24-6,8.14-17.36,8.68-17.89a19.86,19.86,0,0,0,2.57-8.46c-.33-2.25,6.1-12.54,6.1-12.54l4.07-13.84,1.22-4.27,0-2.55c0-1.15,0-2.62.09-4.28.11-6.84.22-17,0-21.56,0-.71-.08-1.29-.13-1.7-.53-4.6,4.28-14.66,5.47-16.71.88-1.52,6.57-2.68,10-3.39a22.46,22.46,0,0,0,2.39-.58,3,3,0,0,1,.94-.07c3.2.13,12.63,2.11,12.63,2.11-.85,25.82.86,21.32.86,21.32,2.79-2.14,1.07-21.11,1.07-21.11,1.38.64,2.82-1,2.82-1l5.43,2.25a53.88,53.88,0,0,1,4.8,3.25,14.33,14.33,0,0,1,3.35,3.29,68.91,68.91,0,0,1,3.86,10.29l-1.93,3.06c-1.68,2.7-4.27,6.86-6.93,11.07l-4.71,7.51c-2.11,3.34-3.83,6.07-4.54,7.17a2.76,2.76,0,0,0-.34.86c0,.2-.06.41-.08.61a9.83,9.83,0,0,0,.25,2.54,78.79,78.79,0,0,0,7.46,16.88s6.1,9.32,6.21,12.32,6.65,6.22,8.15,10.29,4.82,5.57,4.39,8,4.27,3.54,5.14,5.15S1142.06,607.35,1139.06,607.78Z" transform="translate(-639 -234.4)"/><path id="Path_378" data-name="Path 378" class="cls-6" d="M1147.09,582a9.26,9.26,0,0,1-5.52.92l-.35-4.77,5.89.75A16.9,16.9,0,0,0,1147.09,582Z" transform="translate(-639 -234.4)"/><path id="Path_379" data-name="Path 379" class="cls-14" d="M1126.41,515.1l4.4,3.11a57.59,57.59,0,0,0,3.86,11,12.74,12.74,0,0,1,1.61,6.64A23.81,23.81,0,0,1,1138,538a25.88,25.88,0,0,1,2.35,11.43c-.64,1.1,3.71,10.32,3.71,10.32a13.83,13.83,0,0,1,1.87,4,12.2,12.2,0,0,1,0,7.18s3.31,7.39,1.93,9.43-5.9,1.83-6.54,1.6,1.72-1.38-2.44-1.71-9.66-7.72-9.66-7.72A46.08,46.08,0,0,1,1124.5,560a91.8,91.8,0,0,0-3.86-13.29c-.54-1.6-2.9-12-2.9-12Z" transform="translate(-639 -234.4)"/><path id="Path_380" data-name="Path 380" class="cls-6" d="M1093.52,515.1s-.32,24.86-3.31,29.79Z" transform="translate(-639 -234.4)"/><path id="Path_381" data-name="Path 381" class="cls-6" d="M1110.87,523.89s-2.78,24.86-5,26.14S1110.87,523.89,1110.87,523.89Z" transform="translate(-639 -234.4)"/><path id="Path_382" data-name="Path 382" class="cls-6" d="M1106.84,520.35s-.67,23.44-4.21,25.76S1106.84,520.35,1106.84,520.35Z" transform="translate(-639 -234.4)"/><path id="Path_383" data-name="Path 383" class="cls-6" d="M1076.06,564.71s-4.44,13-3.94,18.32S1076.06,564.71,1076.06,564.71Z" transform="translate(-639 -234.4)"/><path id="Path_384" data-name="Path 384" class="cls-6" d="M1112.54,551.9c-5.8,1.3-21.5,3.63-35.3-4.95,0-1.15.06-2.62.09-4.28,5.24,2.88,20,10.38,27.44,8.28l7.59-2.18A8.07,8.07,0,0,0,1112.54,551.9Z" transform="translate(-639 -234.4)"/><path id="Path_385" data-name="Path 385" class="cls-6" d="M1112.54,550.62c-5.8,1.29-21.5,3.62-35.3-5,0-1.15.06-2.63.09-4.28,5.24,2.88,20,10.38,27.44,8.28,3.74-1.06,6.11-1.75,7.59-2.18A8.26,8.26,0,0,0,1112.54,550.62Z" transform="translate(-639 -234.4)"/><path id="Path_386" data-name="Path 386" class="cls-15" d="M1112.54,551.08c-5.8,1.29-21.5,3.62-35.3-5,0-1.14.06-2.62.09-4.27,5.24,2.88,20,10.38,27.44,8.28,3.74-1.06,6.11-1.75,7.59-2.18A8.27,8.27,0,0,0,1112.54,551.08Z" transform="translate(-639 -234.4)"/><path id="Path_387" data-name="Path 387" class="cls-6" d="M1112.54,551.08c-5.8,1.29-21.5,3.62-35.3-5,0-1.14.06-2.62.09-4.27,5.24,2.88,20,10.38,27.44,8.28,3.74-1.06,6.11-1.75,7.59-2.18A8.27,8.27,0,0,0,1112.54,551.08Z" transform="translate(-639 -234.4)"/><path id="Path_388" data-name="Path 388" class="cls-6" d="M1087.57,698.51a1.26,1.26,0,0,1,0,.28l-9,6.83a10.44,10.44,0,0,0,1.79-7.13v-.92a18.2,18.2,0,0,1,3.31-5.29,2.76,2.76,0,0,1,3,.69v.2a2.51,2.51,0,0,1,.32.48A8.68,8.68,0,0,1,1087.57,698.51Z" transform="translate(-639 -234.4)"/><path id="Path_389" data-name="Path 389" class="cls-6" d="M1086.87,695.05l-6.76,4.64s.05-.55.11-1.34a18.26,18.26,0,0,1,3.46-5.65,2.77,2.77,0,0,1,3,.69C1086.79,694.39,1086.87,695.05,1086.87,695.05Z" transform="translate(-639 -234.4)"/><path id="Path_390" data-name="Path 390" class="cls-16" d="M1087.52,699.22a17.07,17.07,0,0,0-1.4,6.9,10.68,10.68,0,0,1-1.44,5.57,5,5,0,0,1-.46.67,13.68,13.68,0,0,1-6.35-1.4,1.47,1.47,0,0,1-.45-.51c-1-1.88,1.83-9.06,1.83-9.06a19.89,19.89,0,0,1,4.41-8.49C1088.94,691.52,1087.52,699.22,1087.52,699.22Z" transform="translate(-639 -234.4)"/><path id="Path_391" data-name="Path 391" class="cls-6" d="M1084.68,711.65a4.51,4.51,0,0,1-.46.68,13.93,13.93,0,0,1-6.35-1.4c.8-2.67,3.39-10.76,4.59-9.38S1084.39,709.08,1084.68,711.65Z" transform="translate(-639 -234.4)"/><path id="Path_392" data-name="Path 392" class="cls-16" d="M1084,702.07l-.33,12.13h1.58a82.19,82.19,0,0,1,1-12.13C1087,700.58,1084,702.07,1084,702.07Z" transform="translate(-639 -234.4)"/><path id="Path_393" data-name="Path 393" class="cls-6" d="M1118.74,695.79l0,.25h0l-8.91,6.79a10.74,10.74,0,0,0,1.74-7.1v-.92a18,18,0,0,1,3.31-5.28,2.79,2.79,0,0,1,3.08.68v.2a3,3,0,0,1,.32.47A8.87,8.87,0,0,1,1118.74,695.79Z" transform="translate(-639 -234.4)"/><path id="Path_394" data-name="Path 394" class="cls-6" d="M1118,692.3l-6.75,4.64s0-.55.11-1.34a18.43,18.43,0,0,1,3.45-5.65,2.76,2.76,0,0,1,3.08.69C1118,691.64,1118,692.3,1118,692.3Z" transform="translate(-639 -234.4)"/><path id="Path_395" data-name="Path 395" class="cls-16" d="M1118.7,696.47a16.91,16.91,0,0,0-1.41,6.9,10.74,10.74,0,0,1-1.43,5.57,7.51,7.51,0,0,1-.47.68,13.93,13.93,0,0,1-6.35-1.4,1.86,1.86,0,0,1-.44-.53c-.94-1.87,1.83-9.05,1.83-9.05a20,20,0,0,1,4.42-8.5C1120.11,688.78,1118.7,696.47,1118.7,696.47Z" transform="translate(-639 -234.4)"/><path id="Path_396" data-name="Path 396" class="cls-6" d="M1115.86,708.94a7.51,7.51,0,0,1-.47.68,14,14,0,0,1-6.35-1.4c.81-2.68,3.39-10.77,4.59-9.39S1115.57,706.34,1115.86,708.94Z" transform="translate(-639 -234.4)"/><path id="Path_397" data-name="Path 397" class="cls-16" d="M1115.22,699.33l-.33,12.12h1.57a84.75,84.75,0,0,1,1-12.12C1118.13,697.84,1115.22,699.33,1115.22,699.33Z" transform="translate(-639 -234.4)"/><path id="Path_398" data-name="Path 398" class="cls-6" d="M1129.26,524.64a7.59,7.59,0,0,1-4.67,7.22,25.62,25.62,0,0,1-2.64.5,5.21,5.21,0,0,0-1.22.37,6.58,6.58,0,0,0-3.18,5c-.14.69-.23,1.39-.31,2.1a15.2,15.2,0,0,1-.83,3.95,10,10,0,0,1-4.11,4.69,26.65,26.65,0,0,1-6.84,2.86,15.3,15.3,0,0,0,1.83-12.76c-.39-1.26-1.22-2.65-2.54-2.62-1,0-1.77.95-2.54,1.66-3.79,3.41-9.71,1.89-14.5.17a30.85,30.85,0,0,0,5.77-33.82,11.17,11.17,0,0,1-1-2.73,5.63,5.63,0,0,1,.27-2.82,12.45,12.45,0,0,1,1.74-3.23c.29-.42.61-.83.92-1.26a20.63,20.63,0,0,0,1.19-1.7,9.47,9.47,0,0,0,1.22-2.64,4.49,4.49,0,0,0-2.23-5.41l-.11,0a7.13,7.13,0,0,1-4.42-2.69c-1-1.18-1.58-3.05-3.31-3.4a10,10,0,0,0-4.22.68,11.79,11.79,0,1,1,21.25,8.65,26,26,0,0,0,8.72,11.75l5.43,2.25a51.72,51.72,0,0,1,4.8,3.24,69.36,69.36,0,0,0,3.45,11.17,38,38,0,0,1,1.83,5.49A13.41,13.41,0,0,1,1129.26,524.64Z" transform="translate(-639 -234.4)"/><path id="Path_399" data-name="Path 399" class="cls-17" d="M1095.8,483.71a4.47,4.47,0,0,1,2.34,5.46,18.22,18.22,0,0,1-3.31,5.6,8.35,8.35,0,0,0-2,6.05,11.17,11.17,0,0,0,1.05,2.73,30.9,30.9,0,0,1-5.78,33.82c4.8,1.72,10.73,3.24,14.51-.17.77-.7,1.5-1.61,2.53-1.66,1.32,0,2.17,1.36,2.55,2.62a15.34,15.34,0,0,1-1.83,12.75c4.42-1.28,9.26-3.27,11-7.54a32.82,32.82,0,0,0,1.14-6.07,6.59,6.59,0,0,1,3.19-5,31.68,31.68,0,0,1,3.86-.87,7.57,7.57,0,0,0,4.66-7.22,23.6,23.6,0,0,0-2.2-8.85c-6.11-15.87-.37-3.16-3.72-22.26A22.63,22.63,0,0,1,1125,483a12.55,12.55,0,0,0-2-11.25c-2.68-2.92-6.85-3.46-10.18-5.44-2.95-1.76-5.54-4.72-9-4.67a9,9,0,0,0-4.83,1.43c-4,1.69-8.51,1.18-12.59,2.57-3.67,1.26-8.32,5.37-7.21,9.77,1.5,5.92,5.6,1.56,8.8,2.23,1.73.37,2.31,2.21,3.31,3.4A7.3,7.3,0,0,0,1095.8,483.71Z" transform="translate(-639 -234.4)"/><path id="Path_400" data-name="Path 400" class="cls-13" d="M1057.28,555.89s-1.74-.18-4.07-.55c-6.11-.93-16.43-3.05-10.56-6.11,5.4-2.82,12.83-.42,17.17,1.49a37.27,37.27,0,0,1,3.62,1.84Z" transform="translate(-639 -234.4)"/><path id="Path_401" data-name="Path 401" class="cls-6" d="M1089.77,518.64a165.86,165.86,0,0,1-4.17,17.14c-1.38,3.09-3.67,11.25-3.67,11.25s-3.29,3-6,5.87l1.23-4.27,0-2.55c0-1.15,0-2.62.08-4.28.11-6.83.23-17,0-21.56l.39-.72,2.17-3.44a79,79,0,0,1,5.57-12.11C1087.44,501.3,1089.77,518.64,1089.77,518.64Z" transform="translate(-639 -234.4)"/><path id="Path_402" data-name="Path 402" class="cls-6" d="M1059,554s-.31,1.22-.83,2.87c-.67-.28-1.22-.48-1.63-.61-1.83-.61.32-1.38-.21-3-.46-1.38-1.31-.95-2.29-1.33a25.9,25.9,0,0,1,2.07-2.48Z" transform="translate(-639 -234.4)"/><path id="Path_403" data-name="Path 403" class="cls-14" d="M1079.48,516.07l-2.16,3.44a63,63,0,0,0-3.4,7.14c-.46,1.69-1.38,8.17-3.21,9.66s-5.57,6.32-5,7.29-5,2.14-5,2.14-3.75,1.5-3.54,2.68-3.11,2.14-1.93,3,2.25,0,2.79,1.6-1.61,2.37.21,3,7.82,3.15,7.82,3.15,4.82.81,6.21-2.08a65,65,0,0,1,9.33-10.07,117.15,117.15,0,0,1,3.66-11.25,157.4,157.4,0,0,0,4.18-17.14s-2.25-17.36-4.27-14.66A82.9,82.9,0,0,0,1079.48,516.07Z" transform="translate(-639 -234.4)"/><path id="Path_404" data-name="Path 404" class="cls-6" d="M1073.38,543.71s-10.61,1.38-4.93,3.75,7.61,0,7.61,0Z" transform="translate(-639 -234.4)"/><path id="Path_405" data-name="Path 405" class="cls-6" d="M1060.2,550s6.21-1.28,7.82,0S1060.2,550,1060.2,550Z" transform="translate(-639 -234.4)"/><path id="Path_406" data-name="Path 406" class="cls-6" d="M1059.56,553.25s.43-1.08,2.57,0S1059.56,553.25,1059.56,553.25Z" transform="translate(-639 -234.4)"/><path id="Path_407" data-name="Path 407" class="cls-6" d="M1129.68,563.48s.65,9.77,3.28,10.09S1129.68,563.48,1129.68,563.48Z" transform="translate(-639 -234.4)"/><path id="Path_408" data-name="Path 408" class="cls-6" d="M1135.31,541.37a3.05,3.05,0,0,1-2.35,3.52C1130.16,545.43,1135.31,541.37,1135.31,541.37Z" transform="translate(-639 -234.4)"/><path id="Path_409" data-name="Path 409" class="cls-6" d="M1103.59,570.43s-.14,30.14,6,33.86Z" transform="translate(-639 -234.4)"/><path id="Path_410" data-name="Path 410" class="cls-6" d="M1111.73,571.71s-.11,30.14,6,33.86Z" transform="translate(-639 -234.4)"/><path id="Path_411" data-name="Path 411" class="cls-6" d="M1079.08,637a22.56,22.56,0,0,1,4.19,0C1085.59,637.17,1079.08,637,1079.08,637Z" transform="translate(-639 -234.4)"/><path id="Path_412" data-name="Path 412" class="cls-6" d="M1079.08,639.09a22.56,22.56,0,0,1,4.19,0C1085.59,639.3,1079.08,639.09,1079.08,639.09Z" transform="translate(-639 -234.4)"/><path id="Path_413" data-name="Path 413" class="cls-6" d="M1110.87,634.51a22.45,22.45,0,0,1,4.18,0C1117.38,634.74,1110.87,634.51,1110.87,634.51Z" transform="translate(-639 -234.4)"/><path id="Path_414" data-name="Path 414" class="cls-6" d="M1111.58,636.19a22.56,22.56,0,0,1,4.19,0C1118.1,636.41,1111.58,636.19,1111.58,636.19Z" transform="translate(-639 -234.4)"/><g id="Group_49" data-name="Group 49" class="cls-18"><path id="Path_415" data-name="Path 415" d="M1090.36,536.31a30.83,30.83,0,0,0,5.77-33.82,11,11,0,0,1-1.05-2.73,8.36,8.36,0,0,1,2-6.05,17.72,17.72,0,0,0,3.31-5.6,4.45,4.45,0,0,0-2.33-5.44,7.16,7.16,0,0,1-4.42-2.7c-1-1.18-1.59-3.05-3.31-3.39-3.2-.67-7.33,3.66-8.8-2.24-.84-3.31,1.62-6.47,4.46-8.36-3.55,1.48-7.65,5.38-6.6,9.52,1.49,5.92,5.6,1.57,8.79,2.23,1.74.37,2.31,2.21,3.32,3.4a7.19,7.19,0,0,0,4.41,2.69,4.45,4.45,0,0,1,2.34,5.45,18.34,18.34,0,0,1-3.31,5.6,8.41,8.41,0,0,0-2,6.06,11.52,11.52,0,0,0,1,2.72,30.89,30.89,0,0,1-5.77,33.82c4.62,1.66,10.28,3.12,14,.19C1098.69,538.92,1094.17,537.68,1090.36,536.31Z" transform="translate(-639 -234.4)"/><path id="Path_416" data-name="Path 416" d="M1123.41,531.25a4.28,4.28,0,0,0-1.22.84c1-.23,2-.27,2.93-.56a5.51,5.51,0,0,0,2-1.11A24.72,24.72,0,0,0,1123.41,531.25Z" transform="translate(-639 -234.4)"/><path id="Path_417" data-name="Path 417" d="M1112.78,548.2a35.23,35.23,0,0,1-4.64,1.68,15.37,15.37,0,0,0,1.83-12.76c-.38-1.22-1.22-2.65-2.55-2.62a3.29,3.29,0,0,0-2,1.16c1.23,0,2.06,1.4,2.45,2.61A15.33,15.33,0,0,1,1106,551,26.89,26.89,0,0,0,1112.78,548.2Z" transform="translate(-639 -234.4)"/></g></svg>