<svg id="Layer_1" data-name="Layer 1" xmlns="http://www.w3.org/2000/svg" viewBox="0 0 125.08 125.14"><defs><style>.cls-1{opacity:0.42;}.cls-2{fill:#b2ebf2;}.cls-3,.cls-4{fill:#464646;}.cls-4{font-size:56.97px;font-family:GoogleSans-Regular, Google Sans;}</style></defs><title>stobil</title><g class="cls-1"><rect class="cls-2" x="15.08" y="15.14" width="110" height="110"/></g><path class="cls-3" d="M608.92,394.86h-12v2.83h12v-2.83Zm-24,0h-12v2.83h12v-2.83Zm-24,0h-12v2.83h12v-2.83Zm-24,0h-12v2.83h12v-2.83Zm-11.18,10h-2.83v12h2.83v-12Zm0,24h-2.83v12h2.83v-12Zm0,24h-2.83v12h2.83v-12Zm0,24h-2.83v12h2.83v-12Zm0,24h-2.83v4h8V502h-5.15v-1.18ZM554.9,502h-12v2.84h12V502Zm24,0h-12v2.84h12V502Zm24,0h-12v2.84h12V502Zm24,0h-12v2.84h12V502Zm6-15.13h-2.83v12h2.83v-12Zm0-24h-2.83v12h2.83v-12Zm0-24h-2.83v12h2.83v-12Zm0-24h-2.83v12h2.83v-12Zm0-20h-12v2.83h9.17v5.2h2.83v-8Z" transform="translate(-522.92 -394.86)"/><text class="cls-4" transform="translate(41.97 79.82)">S</text></svg>